<svg width="18" height="16" viewBox="0 0 18 16" fill="none" xmlns="http://www.w3.org/2000/svg">
<path fill-rule="evenodd" clip-rule="evenodd" d="M9.00098 11.7842C8.65598 11.7842 8.37598 11.5042 8.37598 11.1592V1.125C8.37598 0.78 8.65598 0.5 9.00098 0.5C9.34598 0.5 9.62598 0.78 9.62598 1.125V11.1592C9.62598 11.5042 9.34598 11.7842 9.00098 11.7842" fill="#31A2EE"/>
<path fill-rule="evenodd" clip-rule="evenodd" d="M9.00077 11.784C8.83494 11.784 8.67494 11.7182 8.55827 11.5999L6.12827 9.1607C5.88494 8.9157 5.88577 8.51986 6.12994 8.27653C6.37494 8.0332 6.76994 8.0332 7.01327 8.2782L9.00077 10.274L10.9883 8.2782C11.2316 8.0332 11.6266 8.0332 11.8716 8.27653C12.1158 8.51986 12.1166 8.9157 11.8733 9.1607L9.44327 11.5999C9.3266 11.7182 9.1666 11.784 9.00077 11.784" fill="#31A2EE"/>
<mask id="mask0_182_588" style="mask-type:luminance" maskUnits="userSpaceOnUse" x="0" y="4" width="18" height="12">
<path fill-rule="evenodd" clip-rule="evenodd" d="M0.666992 4.44385H17.3335V15.8972H0.666992V4.44385Z" fill="white"/>
</mask>
<g mask="url(#mask0_182_588)">
<path fill-rule="evenodd" clip-rule="evenodd" d="M13.6462 15.8972H4.36283C2.32533 15.8972 0.666992 14.2397 0.666992 12.2013V8.13051C0.666992 6.09718 2.32116 4.44385 4.35533 4.44385H5.13949C5.48449 4.44385 5.76449 4.72385 5.76449 5.06885C5.76449 5.41385 5.48449 5.69385 5.13949 5.69385H4.35533C3.01033 5.69385 1.91699 6.78635 1.91699 8.13051V12.2013C1.91699 13.5505 3.01366 14.6472 4.36283 14.6472H13.6462C14.9895 14.6472 16.0837 13.553 16.0837 12.2097V8.13968C16.0837 6.79051 14.9862 5.69385 13.6387 5.69385H12.862C12.517 5.69385 12.237 5.41385 12.237 5.06885C12.237 4.72385 12.517 4.44385 12.862 4.44385H13.6387C15.6762 4.44385 17.3337 6.10218 17.3337 8.13968V12.2097C17.3337 14.243 15.6787 15.8972 13.6462 15.8972" fill="#31A2EE"/>
</g>
</svg>
