<svg width="25" height="25" viewBox="0 0 25 25" fill="none" xmlns="http://www.w3.org/2000/svg">
<path d="M11.6753 1.04706H7.11812C3.37022 1.04706 1.02032 3.70044 1.02032 7.45687V17.5902C1.02032 21.3466 3.35925 24 7.11812 24H17.873C21.6331 24 23.9721 21.3466 23.9721 17.5902V12.6808" stroke="#0099FF" stroke-width="2" stroke-linecap="round" stroke-linejoin="round"/>
<path fill-rule="evenodd" clip-rule="evenodd" d="M8.42838 10.9584L17.5367 1.85013C18.6714 0.716623 20.5106 0.716623 21.6453 1.85013L23.1287 3.33344C24.2634 4.46817 24.2634 6.3086 23.1287 7.44211L13.9765 16.5943C13.4804 17.0903 12.8076 17.3695 12.1056 17.3695H7.53986L7.65443 12.7623C7.67149 12.0846 7.94816 11.4386 8.42838 10.9584Z" stroke="#0099FF" stroke-width="2" stroke-linecap="round" stroke-linejoin="round"/>
<path d="M16.1523 3.25739L21.7174 8.82255" stroke="#0099FF" stroke-width="2" stroke-linecap="round" stroke-linejoin="round"/>
</svg>
