<svg width="25" height="25" viewBox="0 0 25 25" fill="none" xmlns="http://www.w3.org/2000/svg">
<g clip-path="url(#clip0_40_66)">
<path d="M21.8749 4.16667H18.6458C18.404 2.99105 17.7643 1.93474 16.8346 1.17575C15.9048 0.41676 14.7418 0.00151513 13.5416 0L11.4583 0C10.258 0.00151513 9.09504 0.41676 8.16528 1.17575C7.23552 1.93474 6.59585 2.99105 6.35409 4.16667H3.12492C2.84865 4.16667 2.5837 4.27641 2.38835 4.47176C2.193 4.66711 2.08325 4.93207 2.08325 5.20833C2.08325 5.4846 2.193 5.74955 2.38835 5.9449C2.5837 6.14025 2.84865 6.25 3.12492 6.25H4.16659V19.7917C4.16824 21.1725 4.7175 22.4963 5.6939 23.4727C6.67029 24.4491 7.99409 24.9983 9.37492 25H15.6249C17.0057 24.9983 18.3295 24.4491 19.3059 23.4727C20.2823 22.4963 20.8316 21.1725 20.8333 19.7917V6.25H21.8749C22.1512 6.25 22.4161 6.14025 22.6115 5.9449C22.8068 5.74955 22.9166 5.4846 22.9166 5.20833C22.9166 4.93207 22.8068 4.66711 22.6115 4.47176C22.4161 4.27641 22.1512 4.16667 21.8749 4.16667ZM11.4583 2.08333H13.5416C14.1877 2.08412 14.8178 2.28477 15.3454 2.65775C15.8729 3.03074 16.2722 3.5578 16.4885 4.16667H8.51138C8.72761 3.5578 9.1269 3.03074 9.65449 2.65775C10.1821 2.28477 10.8121 2.08412 11.4583 2.08333ZM18.7499 19.7917C18.7499 20.6205 18.4207 21.4153 17.8346 22.0014C17.2486 22.5874 16.4537 22.9167 15.6249 22.9167H9.37492C8.54612 22.9167 7.75126 22.5874 7.16521 22.0014C6.57916 21.4153 6.24992 20.6205 6.24992 19.7917V6.25H18.7499V19.7917Z" fill="#EE4C4C"/>
<path d="M10.4167 18.7493C10.6929 18.7493 10.9579 18.6396 11.1532 18.4442C11.3486 18.2489 11.4583 17.9839 11.4583 17.7077V11.4577C11.4583 11.1814 11.3486 10.9165 11.1532 10.7211C10.9579 10.5258 10.6929 10.416 10.4167 10.416C10.1404 10.416 9.87545 10.5258 9.6801 10.7211C9.48475 10.9165 9.375 11.1814 9.375 11.4577V17.7077C9.375 17.9839 9.48475 18.2489 9.6801 18.4442C9.87545 18.6396 10.1404 18.7493 10.4167 18.7493Z" fill="#EE4C4C"/>
<path d="M14.5832 18.7493C14.8594 18.7493 15.1244 18.6396 15.3198 18.4442C15.5151 18.2489 15.6249 17.9839 15.6249 17.7077V11.4577C15.6249 11.1814 15.5151 10.9165 15.3198 10.7211C15.1244 10.5258 14.8594 10.416 14.5832 10.416C14.3069 10.416 14.042 10.5258 13.8466 10.7211C13.6513 10.9165 13.5415 11.1814 13.5415 11.4577V17.7077C13.5415 17.9839 13.6513 18.2489 13.8466 18.4442C14.042 18.6396 14.3069 18.7493 14.5832 18.7493Z" fill="#EE4C4C"/>
</g>
<defs>
<clipPath id="clip0_40_66">
<rect width="25" height="25" fill="white"/>
</clipPath>
</defs>
</svg>
