<svg width="20" height="20" viewBox="0 0 20 20" fill="none" xmlns="http://www.w3.org/2000/svg">
<path fill-rule="evenodd" clip-rule="evenodd" d="M4.62598 5.225C4.2808 5.225 4.00098 4.94517 4.00098 4.6L4.00098 2.5C4.00098 2.15483 4.2808 1.875 4.62598 1.875C4.97115 1.875 5.25098 2.15483 5.25098 2.5L5.25098 4.6C5.25098 4.94517 4.97115 5.225 4.62598 5.225ZM4.00098 17.5L4.00098 9.3325C4.00098 8.98733 4.2808 8.7075 4.62598 8.7075C4.97115 8.7075 5.25098 8.98733 5.25098 9.3325L5.25098 17.5C5.25098 17.8452 4.97115 18.125 4.62598 18.125C4.2808 18.125 4.00098 17.8452 4.00098 17.5ZM10.0367 12.1509C9.6915 12.1509 9.41167 11.871 9.41167 11.5258L9.41167 2.5C9.41167 2.15483 9.6915 1.875 10.0367 1.875C10.3819 1.875 10.6617 2.15483 10.6617 2.5L10.6617 11.5258C10.6617 11.871 10.3819 12.1509 10.0367 12.1509ZM15.4473 5.225C15.1022 5.225 14.8223 4.94517 14.8223 4.6L14.8223 2.5C14.8223 2.15483 15.1022 1.875 15.4473 1.875C15.7925 1.875 16.0723 2.15483 16.0723 2.5L16.0723 4.6C16.0723 4.94517 15.7925 5.225 15.4473 5.225ZM15.4473 18.125C15.1022 18.125 14.8223 17.8452 14.8223 17.5L14.8223 9.3325C14.8223 8.98733 15.1022 8.7075 15.4473 8.7075C15.7925 8.7075 16.0723 8.98733 16.0723 9.3325L16.0723 17.5C16.0723 17.8452 15.7925 18.125 15.4473 18.125Z" fill="#7E8299"/>
<path fill-rule="evenodd" clip-rule="evenodd" d="M3.125 7.10012C3.125 7.85946 3.74061 8.47512 4.5 8.47512C5.25939 8.47512 5.875 7.85946 5.875 7.10012C5.875 6.34071 5.25939 5.72512 4.5 5.72512C3.74061 5.72512 3.125 6.34071 3.125 7.10012ZM4.5 9.72512C3.05025 9.72512 1.875 8.54987 1.875 7.10012C1.875 5.65037 3.05025 4.47512 4.5 4.47512C5.94975 4.47512 7.125 5.65037 7.125 7.10012C7.125 8.54987 5.94975 9.72512 4.5 9.72512ZM8.625 14.1001C8.625 14.8595 9.24058 15.4751 10 15.4751C10.7594 15.4751 11.375 14.8595 11.375 14.1001C11.375 13.3407 10.7594 12.7251 10 12.7251C9.24058 12.7251 8.625 13.3407 8.625 14.1001ZM10 16.7251C8.55025 16.7251 7.375 15.5498 7.375 14.1001C7.375 12.6503 8.55025 11.4751 10 11.4751C11.4497 11.4751 12.625 12.6503 12.625 14.1001C12.625 15.5498 11.4497 16.7251 10 16.7251ZM14.125 7.10012C14.125 7.85946 14.7406 8.47512 15.5 8.47512C16.2594 8.47512 16.875 7.85946 16.875 7.10012C16.875 6.34071 16.2594 5.72512 15.5 5.72512C14.7406 5.72512 14.125 6.34071 14.125 7.10012ZM15.5 9.72512C14.0502 9.72512 12.875 8.54987 12.875 7.10012C12.875 5.65037 14.0502 4.47512 15.5 4.47512C16.9497 4.47512 18.125 5.65037 18.125 7.10012C18.125 8.54987 16.9497 9.72512 15.5 9.72512Z" fill="#7E8299"/>
</svg>
