<svg width="132" height="133" viewBox="0 0 132 133" fill="none" xmlns="http://www.w3.org/2000/svg">
<path fill-rule="evenodd" clip-rule="evenodd" d="M68.1907 -25.2037C66.4162 -22.5301 66.4477 -22.6263 67.3488 -22.6263C68.0397 -22.6263 68.2783 -22.9128 69.0643 -24.686C70.0897 -26.9997 70.0897 -27 69.6799 -27C69.5167 -27 68.8464 -26.1915 68.1907 -25.2037ZM81.5891 -25.5864C81.4823 -25.3049 81.395 -24.6642 81.395 -24.1627C81.395 -23.358 81.5036 -23.2512 82.3208 -23.2512C83.4261 -23.2512 83.4394 -23.3705 82.5053 -24.9091C81.9393 -25.8407 81.7409 -25.9875 81.5891 -25.5864ZM58.6357 -24.8404C58.0664 -24.6901 55.6029 -21.7401 55.8602 -21.5167C55.9019 -21.4804 56.3589 -21.5161 56.8755 -21.596C57.618 -21.7107 57.996 -22.0675 58.6799 -23.2989C59.1554 -24.1559 59.4967 -24.8944 59.4378 -24.9403C59.3788 -24.9862 59.0178 -24.9413 58.6357 -24.8404ZM99.8158 -23.5395C100.559 -22.2593 100.984 -21.9334 101.754 -22.0556C102.365 -22.1524 102.349 -22.2177 101.44 -23.3293C100.914 -23.9734 100.207 -24.5008 99.8707 -24.5008C99.272 -24.5008 99.2708 -24.4795 99.8158 -23.5395ZM91.4242 -23.2512C91.5291 -23.0793 91.6844 -22.9387 91.7692 -22.9387C91.8541 -22.9387 91.8377 -23.0793 91.7328 -23.2512C91.6279 -23.423 91.4727 -23.5636 91.3878 -23.5636C91.3029 -23.5636 91.3193 -23.423 91.4242 -23.2512ZM45.9069 -20.1271C45.9069 -19.9553 46.0458 -19.8147 46.2155 -19.8147C46.3852 -19.8147 46.5241 -19.9553 46.5241 -20.1271C46.5241 -20.2989 46.3852 -20.4395 46.2155 -20.4395C46.0458 -20.4395 45.9069 -20.2989 45.9069 -20.1271ZM72.9099 -15.2067C72.7896 -14.9062 72.435 -13.9221 72.1221 -13.0199C71.5636 -11.4095 71.5642 -11.3798 72.148 -11.3798C72.7745 -11.3798 72.8887 -11.6881 73.2195 -14.2695C73.4151 -15.7981 73.2938 -16.1652 72.9099 -15.2067ZM63.5479 -15.1655C62.6233 -14.9921 62.4277 -14.7553 61.6192 -12.8328C61.1242 -11.656 60.7193 -10.6719 60.719 -10.646C60.719 -10.62 61.405 -10.6469 62.2438 -10.7059L63.7685 -10.8128L64.5372 -13.1271C65.0396 -14.64 65.1797 -15.4267 64.9412 -15.3998C64.7409 -15.3773 64.1138 -15.2717 63.5479 -15.1655ZM94.819 -14.8943C94.9403 -14.5938 95.3106 -13.5523 95.6421 -12.5804C96.117 -11.1877 96.412 -10.7706 97.0338 -10.6128C97.468 -10.5026 97.8864 -10.4763 97.9636 -10.5544C98.0411 -10.6328 97.617 -11.7641 97.0215 -13.069C96.159 -14.959 95.8028 -15.441 95.2687 -15.441C94.7521 -15.441 94.649 -15.3158 94.819 -14.8943ZM86.9657 -13.4788C86.954 -12.1683 87.074 -11.6244 87.4023 -11.4966C88.3238 -11.1386 88.3917 -11.5819 87.6952 -13.4104L86.9814 -15.2848L86.9657 -13.4788ZM104.539 -14.1961C104.539 -13.7375 106.156 -9.95149 106.493 -9.61971C106.692 -9.42509 107.379 -9.17172 108.022 -9.05707L109.19 -8.84807L108.757 -9.87963C107.211 -13.5638 106.89 -14.0187 105.694 -14.2155C105.059 -14.3198 104.539 -14.3114 104.539 -14.1961ZM52.2331 -13.6069C51.4961 -13.4492 51.1045 -13.0265 50.313 -11.5351C48.9978 -9.05645 49.0126 -8.80278 50.4587 -9.04989C52.3284 -9.36916 52.6213 -9.49694 52.779 -10.0624C52.8613 -10.3573 53.2215 -11.3367 53.5791 -12.2389C54.2991 -14.0537 54.3028 -14.0499 52.2331 -13.6069ZM116.296 -10.387C116.657 -9.47257 117.081 -8.3601 117.239 -7.91492C117.46 -7.29355 117.846 -7.03113 118.902 -6.78652C119.659 -6.61126 120.278 -6.5166 120.278 -6.57565C120.278 -6.635 119.761 -7.7406 119.129 -9.03239C118.407 -10.511 117.749 -11.4482 117.355 -11.5616C115.489 -12.0983 115.581 -12.1995 116.296 -10.387ZM40.6609 -10.7291C40.1569 -10.5404 39.5416 -9.75936 38.8865 -8.47631C38.335 -7.39633 37.8835 -6.42788 37.8835 -6.32416C37.8835 -6.22044 38.4439 -6.27949 39.1287 -6.45537C40.4578 -6.79683 40.6004 -6.9724 41.5687 -9.45976C42.2307 -11.1596 42.1418 -11.2839 40.6609 -10.7291ZM128.894 -5.10922C129.52 -3.69403 130.045 -3.04486 130.331 -3.33414C130.506 -3.51034 128.738 -6.38133 128.456 -6.38133C128.387 -6.38133 128.584 -5.80901 128.894 -5.10922ZM28.3912 -4.1692C27.4463 -2.72371 27.3914 -2.33945 28.2055 -2.87147C28.548 -3.09546 29.6404 -5.45818 29.4778 -5.62313C29.4324 -5.66874 28.9436 -5.01456 28.3912 -4.1692ZM69.2732 -3.9602C69.009 -3.45848 67.733 1.75961 67.8487 1.86426C67.916 1.92518 68.7603 1.90581 69.725 1.82115L71.4787 1.66714L71.6725 -0.404415C71.779 -1.54407 71.9382 -2.86272 72.0261 -3.33539C72.1817 -4.16982 72.1462 -4.1945 70.7912 -4.1945C70.024 -4.1945 69.3408 -4.08891 69.2732 -3.9602ZM79.1234 -3.02299C79.0324 -2.3785 78.8713 -1.04297 78.7655 -0.0551491L78.5732 1.74117H79.7141C80.8272 1.74117 80.8503 1.71743 80.6621 0.764912C80.5559 0.227888 80.4692 -1.10764 80.4692 -2.20293C80.4692 -3.95583 80.3985 -4.1945 79.8792 -4.1945C79.4323 -4.1945 79.2487 -3.9099 79.1234 -3.02299ZM87.5702 -2.2526C87.5721 -1.17293 87.6597 0.237886 87.7649 0.882063L87.9563 2.05358H90.2303C91.481 2.05358 92.5043 2.01734 92.5043 1.97329C92.5043 1.7468 90.9885 -3.64405 90.9049 -3.71465C90.8512 -3.76026 90.0778 -3.89178 89.1869 -4.00675L87.5668 -4.21606L87.5702 -2.2526ZM59.8016 -3.192C58.8724 -3.04798 58.0195 -2.82773 57.9062 -2.70308C57.793 -2.57844 57.3538 -1.31632 56.9308 0.101053L56.1611 2.67839L57.5918 2.67401C60.1762 2.66652 60.2219 2.62372 60.977 -0.511259C61.3526 -2.07047 61.622 -3.37069 61.5754 -3.40037C61.5288 -3.43005 60.7308 -3.33633 59.8016 -3.192ZM98.6811 -2.90021C98.6835 -2.66716 99.0094 -1.28134 99.4053 0.179153L100.125 2.83459L101.538 2.92893L102.952 3.02328L101.981 0.0391979C101.145 -2.52939 100.916 -2.94489 100.331 -2.94489C99.958 -2.94489 99.4328 -3.03017 99.1643 -3.13452C98.8662 -3.25042 98.678 -3.1592 98.6811 -2.90021ZM47.9794 -1.21604C46.9975 -1.00954 46.1492 -0.7868 46.0942 -0.721195C45.8847 -0.470648 44.3751 4.35568 44.4747 4.45659C44.5325 4.51501 45.4551 4.38505 46.5253 4.1673L48.471 3.7718L49.1814 1.12886C49.5724 -0.324753 49.8634 -1.53157 49.8282 -1.55281C49.793 -1.57406 48.9611 -1.42254 47.9794 -1.21604ZM109.269 -0.876772C110.486 3.38036 110.769 4.24228 110.956 4.25415C111.076 4.26165 111.764 4.38317 112.486 4.52438C113.207 4.66559 113.797 4.66684 113.797 4.52688C113.797 4.29758 112.248 -0.846155 112.143 -0.962996C112.12 -0.990173 111.425 -1.11357 110.6 -1.23791C109.227 -1.44504 109.115 -1.41473 109.269 -0.876772ZM121.015 3.6937C121.764 6.48722 121.819 6.53814 124.815 7.192L125.804 7.40787L124.954 4.84678L124.104 2.28601L122.268 1.70587C121.258 1.3866 120.407 1.12355 120.378 1.12105C120.348 1.11855 120.635 2.27632 121.015 3.6937ZM35.3589 2.25445C33.9527 2.69057 33.8962 2.7568 33.2442 4.74119C32.8757 5.86209 32.651 6.85773 32.7455 6.95301C32.8396 7.04861 33.7172 6.92896 34.6958 6.68716C36.6121 6.21355 36.6729 6.12514 37.4052 2.74961C37.6561 1.59372 37.5617 1.57091 35.3589 2.25445ZM133.092 6.77557C133.669 9.43287 133.99 9.92929 135.536 10.5438C136.354 10.869 137.076 11.0814 137.141 11.0155C137.206 10.9499 136.947 10.0177 136.565 8.94427C135.873 6.9955 135.414 6.53658 133.593 5.96706C132.906 5.75244 132.879 5.79524 133.092 6.77557ZM23.4155 7.17201C22.3191 7.75277 21.9549 8.17576 21.4942 9.40445C21.1816 10.2379 20.9656 10.9602 21.0137 11.0093C21.0622 11.058 21.78 10.8374 22.6092 10.5188C23.8275 10.0508 24.1854 9.73778 24.4755 8.88648C25.4488 6.0308 25.4788 6.07922 23.4155 7.17201ZM67.6367 9.15483L66.0678 9.26793L65.4538 12.6897L64.8393 16.1118H67.3747C70.3295 16.1118 70.1153 16.4098 70.4582 11.8162L70.6739 8.92647L69.9398 8.98426C69.5361 9.01613 68.4995 9.09298 67.6367 9.15483ZM77.9588 9.00457C77.936 9.04768 77.7595 10.5941 77.5666 12.441L77.2157 15.7994H79.3493H81.4829L81.2845 13.879C81.1756 12.8231 81.0864 11.2767 81.0864 10.4426V8.92647H79.5434C78.6948 8.92647 77.9817 8.96146 77.9588 9.00457ZM88.1862 10.5666C88.1874 11.297 88.2763 12.8346 88.3834 13.9837L88.5784 16.0733L91.8529 16.1705C93.6538 16.2242 95.1829 16.2352 95.2508 16.1949C95.3186 16.1549 95.1178 14.6588 94.8039 12.8706L94.2333 9.61907L92.8629 9.42913C92.109 9.32447 90.7481 9.23887 89.8381 9.23887H88.184L88.1862 10.5666ZM55.5504 10.0924C54.8289 10.1583 54.2389 10.2545 54.2389 10.3067C54.2389 10.3588 53.9494 11.8384 53.5955 13.5947C53.2418 15.3507 53.02 16.8565 53.103 16.9403C53.1857 17.0243 54.2136 16.9971 55.3869 16.88L57.5202 16.6672L58.0463 13.4998C58.3355 11.7575 58.5694 10.2267 58.5657 10.098C58.5592 9.86493 58.0553 9.86399 55.5504 10.0924ZM101.762 10.7612C101.763 11.5625 102.642 16.4082 102.847 16.7453C103.138 17.222 106.082 17.1286 106.082 16.6425C106.082 16.1261 104.932 10.7762 104.796 10.6591C104.74 10.611 104.034 10.5 103.228 10.4123C102.015 10.2804 101.762 10.3407 101.762 10.7612ZM44.2763 11.8849C43.2944 12.1024 42.4464 12.3342 42.3914 12.3998C42.1733 12.6606 41.2077 18.3314 41.3558 18.4813C41.4431 18.5698 42.4177 18.4829 43.5218 18.288L45.5292 17.9343L46.0267 15.1817C46.5815 12.1124 46.6315 11.4107 46.2927 11.4576C46.1655 11.4754 45.258 11.6675 44.2763 11.8849ZM112.582 12.2423C112.592 12.3945 112.845 13.784 113.144 15.3301L113.687 18.1411L115.198 18.3598C116.029 18.4801 116.766 18.5207 116.836 18.4498C117.035 18.2489 115.909 12.6816 115.635 12.5104C115.14 12.2011 112.563 11.9749 112.582 12.2423ZM145.582 12.9184C145.582 14.0615 146.341 15.1196 147.607 15.7422C149.321 16.5854 149.347 16.5847 148.945 15.7213C148.589 14.9549 145.582 12.4488 145.582 12.9184ZM10.1874 15.5216C9.12678 16.3704 8.25871 17.1343 8.25871 17.2192C8.25871 17.5623 11.5289 15.4635 11.9279 14.8646C12.6743 13.7437 12.1741 13.9324 10.1874 15.5216ZM32.2236 14.8671C31.2321 15.182 30.3551 15.5063 30.2749 15.5879C30.1943 15.6691 29.9293 16.6288 29.6855 17.72C29.442 18.8116 29.1757 19.9996 29.0942 20.3608C28.9467 21.0131 28.9584 21.0143 31.2374 20.5551L33.529 20.0937L33.8697 18.4932C34.4233 15.8921 34.5918 14.2355 34.2995 14.2658C34.1493 14.2814 33.2148 14.5519 32.2236 14.8671ZM123.672 15.003C123.672 15.3932 123.949 16.9659 124.451 19.4186C124.56 19.9521 124.977 20.1452 126.753 20.4845C127.945 20.7122 128.966 20.8409 129.021 20.77C129.076 20.6994 128.861 19.5032 128.544 18.1121L127.967 15.5822L126.133 15.0661C123.891 14.4351 123.672 14.4295 123.672 15.003ZM19.8019 19.521C17.925 20.4011 17.9207 20.4058 17.4449 22.3183C17.1829 23.372 17.077 24.2343 17.2097 24.2343C17.3427 24.2343 18.3531 23.9525 19.455 23.6079L21.4587 22.9812L21.6698 21.4992C21.7858 20.6838 21.9556 19.7007 22.0466 19.3139C22.2552 18.4292 22.1012 18.4432 19.8019 19.521ZM136.029 19.0015C136.037 19.2164 136.212 20.2177 136.42 21.2264L136.797 23.0612L138.751 23.6685C139.827 24.0028 140.77 24.2112 140.849 24.1321C140.927 24.0528 140.818 23.1396 140.606 22.1027L140.222 20.2174L138.35 19.4132C136.219 18.4976 136.011 18.4607 136.029 19.0015ZM76.4575 23.8781C76.4575 24.3699 76.3693 25.4242 76.2613 26.2212L76.065 27.6707L78.9614 27.6713L81.8579 27.6723L81.7563 25.3283L81.6548 22.9846H79.0562H76.4575V23.8781ZM63.8426 24C63.7019 24.3867 63.5034 25.4411 63.4019 26.343L63.2171 27.9831H65.9617C67.4713 27.9831 68.7699 27.8775 68.8473 27.7488C68.9251 27.6201 69.0883 26.5657 69.2102 25.4058L69.4318 23.2971H66.7653C64.2814 23.2971 64.0811 23.3452 63.8426 24ZM88.8058 25.2018C88.8086 26.3021 88.9126 27.3567 89.0373 27.5461C89.1681 27.7441 90.8823 27.9806 93.0854 28.1037L96.9064 28.3177L96.6851 26.0418C96.5635 24.79 96.4234 23.7244 96.3737 23.6741C96.324 23.6238 94.6003 23.4967 92.5426 23.392L88.8012 23.2018L88.8058 25.2018ZM54.0025 24.2299C52.9391 24.3524 51.9988 24.5236 51.913 24.6104C51.8273 24.6972 51.6455 25.706 51.5091 26.8522L51.2613 28.9366L53.5989 28.7301C54.8845 28.6167 55.9673 28.4992 56.0056 28.4695C56.2392 28.2871 56.4385 23.9294 56.212 23.9647C56.0602 23.9881 55.0659 24.1074 54.0025 24.2299ZM103.774 25.5204C104.236 29.0212 104.195 28.9203 105.132 28.9203C105.612 28.9203 106.455 29.0115 107.005 29.1228L108.006 29.3255L107.781 27.014C107.657 25.7429 107.536 24.6785 107.512 24.6488C107.487 24.6191 106.596 24.4951 105.53 24.373L103.593 24.1512L103.774 25.5204ZM148.693 25.7182C148.841 26.3627 148.965 27.0015 148.969 27.1384C148.978 27.4339 154.18 30.0047 154.374 29.8091C154.877 29.2996 153.82 28.0846 151.437 26.4323C149.941 25.3952 148.652 24.5467 148.571 24.5467C148.49 24.5467 148.545 25.074 148.693 25.7182ZM7.31164 26.631C4.9719 28.3411 2.97284 30.059 3.62983 29.7947C3.88442 29.6923 5.23111 29.0856 6.62225 28.4461C8.7935 27.4483 9.17985 27.1531 9.35174 26.3614C9.46191 25.8541 9.49431 25.3808 9.42395 25.3099C9.35359 25.2386 8.40313 25.8331 7.31164 26.631ZM41.7409 25.85C40.8923 26.0128 40.1116 26.243 40.006 26.3617C39.9002 26.4801 39.7243 27.397 39.6144 28.3992L39.4151 30.2209L41.5039 30.0044C42.6525 29.885 43.6872 29.6979 43.8026 29.5882C43.9184 29.4786 44.11 28.5105 44.2285 27.4364C44.472 25.2262 44.592 25.3027 41.7409 25.85ZM114.893 26.8313C115.353 30.3505 115.204 30.0925 116.911 30.3302C117.766 30.4492 118.516 30.4955 118.578 30.433C118.639 30.3708 118.61 29.4311 118.513 28.3452C118.32 26.1887 118.203 26.0721 115.88 25.7057L114.722 25.5229L114.893 26.8313ZM29.8089 28.2427C27.5926 28.7735 27.3914 29.0428 27.3914 31.4795C27.3914 32.2074 27.5037 32.3658 27.9314 32.2393C28.2286 32.1518 29.1081 31.9891 29.8864 31.8782C30.6643 31.7673 31.4892 31.5589 31.7191 31.4149C32.2311 31.0947 32.6696 27.652 32.1909 27.7104C32.0123 27.7323 30.9402 27.9719 29.8089 28.2427ZM125.731 29.1274C125.99 31.9703 125.936 31.8982 128.097 32.3012C129.182 32.5036 130.227 32.6692 130.419 32.6692C130.804 32.6692 130.864 31.5733 130.577 29.8132C130.398 28.7163 130.328 28.6626 128.652 28.3246C127.695 28.1318 126.615 27.8935 126.253 27.795C125.633 27.627 125.602 27.7079 125.731 29.1274ZM17.5165 31.8604C15.5409 32.5542 15.5078 32.5845 15.3356 33.8666C15.2307 34.6454 15.2847 35.1684 15.4696 35.1684C15.9726 35.1684 19.5053 34.1547 19.7149 33.9503C19.8207 33.8473 19.9809 33.1653 20.0713 32.4349C20.2623 30.8869 20.2784 30.8903 17.5165 31.8604ZM138.049 32.7473C138.161 33.6492 138.339 34.4836 138.446 34.6014C138.552 34.7192 139.641 35.0956 140.867 35.438L143.095 36.0609L142.912 34.5992C142.811 33.7954 142.571 32.9788 142.38 32.7841C142.026 32.4227 138.71 31.1072 138.154 31.1072C137.962 31.1072 137.923 31.7279 138.049 32.7473ZM75.4244 36.4861C75.3167 37.3937 75.2272 38.8242 75.2259 39.6645L75.2232 41.1931L77.1201 40.9922C78.1631 40.882 79.7653 40.7917 80.6803 40.7917H82.3439L82.2553 37.9019L82.1665 35.0122L78.8932 34.9241L75.62 34.8357L75.4244 36.4861ZM62.4623 36.8085C62.3552 37.7104 62.2663 39.046 62.2651 39.7764L62.2623 41.1041H65.1939H68.1255V39.5858C68.1255 38.7504 68.2138 37.4149 68.3218 36.618L68.5181 35.1684H65.5874H62.657L62.4623 36.8085ZM89.4184 38.0906V41.1041H93.6161H97.8136L97.705 38.4746C97.6451 37.0281 97.5235 35.7717 97.435 35.682C97.3461 35.5923 95.5063 35.4196 93.3461 35.2981L89.4184 35.0772V38.0906ZM4.09272 37.7217C0.976865 39.4483 0.0733081 40.1069 0.38622 40.4237C0.519841 40.5593 7.06754 38.026 7.38817 37.7148C7.73348 37.3799 8.03806 35.7913 7.752 35.817C7.60634 35.8301 5.9597 36.687 4.09272 37.7217ZM52.0016 36.0228C50.6296 36.1325 50.5358 36.1959 50.5358 37.0141C50.5358 37.4949 50.4448 38.7689 50.3337 39.8451L50.1319 41.802L52.4731 41.6823C53.7609 41.6164 54.874 41.4946 54.9468 41.4115C55.0196 41.3284 55.161 40.0304 55.2613 38.5268L55.4433 35.7932L54.4552 35.8494C53.9121 35.8804 52.808 35.9585 52.0016 36.0228ZM104.848 38.722C104.848 41.6902 104.872 41.7164 107.656 41.7245L109.076 41.7289L108.932 39.3078C108.853 37.9763 108.7 36.7992 108.593 36.6923C108.485 36.5852 107.598 36.4083 106.622 36.299L104.848 36.1003V38.722ZM150.233 36.8085C150.278 38.2837 150.714 38.6851 153.582 39.8935C155.162 40.5593 156.577 41.1041 156.727 41.1041C156.877 41.1041 157 40.8354 157 40.5074C157 39.9126 154.705 38.2522 151.843 36.7757C150.235 35.946 150.206 35.9466 150.233 36.8085ZM40.5535 37.3705C39.7308 37.5102 38.9809 37.702 38.8874 37.7967C38.7939 37.8916 38.6498 39.0363 38.5671 40.3406L38.4165 42.7123L40.696 42.4924C41.9495 42.3712 42.9907 42.2556 43.0095 42.235C43.0284 42.2144 43.128 41.0375 43.2311 39.6202C43.444 36.6954 43.6264 36.8485 40.5535 37.3705ZM115.961 38.7258C115.963 39.4324 116.048 40.5258 116.151 41.1553C116.337 42.2953 116.345 42.3006 118.037 42.4049L119.735 42.5099L119.536 40.3415C119.426 39.1488 119.305 38.1419 119.267 38.1041C119.229 38.0663 118.468 37.9013 117.577 37.7379L115.957 37.4405L115.961 38.7258ZM28.6502 39.4187C27.5602 39.6598 26.6415 39.892 26.6088 39.9341C26.5761 39.9763 26.4733 40.8992 26.3805 41.9851L26.2117 43.9595L28.2672 43.7564C31.5426 43.4324 31.4031 43.5515 31.4031 41.0832C31.4031 39.5421 31.2917 38.9263 31.0174 38.9485C30.8054 38.966 29.7398 39.1775 28.6502 39.4187ZM126.758 41.394V43.2459L128.532 43.4412C129.508 43.5483 130.619 43.7017 131.001 43.782C131.654 43.9192 131.695 43.8261 131.695 42.2094C131.695 40.683 131.618 40.4733 131.001 40.3315C128.718 39.8067 127.483 39.5564 127.144 39.5496C126.878 39.5446 126.758 40.1166 126.758 41.394ZM16.6299 42.3637C15.5483 42.6867 14.6305 42.9923 14.5901 43.0429C14.5497 43.0935 14.4234 43.7486 14.3099 44.4987C14.1121 45.8033 14.134 45.8551 14.807 45.6877C15.194 45.5915 16.2429 45.4159 17.1375 45.2978C18.0324 45.1797 18.8175 44.996 18.882 44.8898C18.9465 44.7836 19.098 44.0291 19.2187 43.2128C19.4736 41.4887 19.5155 41.5024 16.6299 42.3637ZM138.793 43.5893C138.793 44.7383 138.863 44.837 139.796 45.0026C140.348 45.1004 141.466 45.3009 142.281 45.4481L143.764 45.7158L143.67 44.7608C143.582 43.8642 143.434 43.7611 141.262 43.0857C139.989 42.6895 138.913 42.3628 138.87 42.3596C138.828 42.3565 138.793 42.9098 138.793 43.5893ZM3.69556 47.0863C2.11927 47.7927 0.88151 48.4228 0.944772 48.4868C1.00803 48.5509 2.40133 48.2869 4.04057 47.8998C6.71883 47.2675 7.02156 47.1247 7.0228 46.4931C7.02372 46.1063 6.92034 45.793 6.7929 45.7964C6.66545 45.7998 5.27185 46.3803 3.69556 47.0863ZM151.007 47.0338C151.174 47.2025 151.792 47.4209 152.381 47.519L153.451 47.6977L152.413 47.2125C151.216 46.6533 150.548 46.5683 151.007 47.0338ZM75.3003 48.1975C74.6186 48.3303 74.606 48.4143 74.606 52.8411V57.3491H78.6177H82.6293V52.663V47.977L79.312 48.0195C77.4876 48.0429 75.6823 48.1229 75.3003 48.1975ZM61.8874 52.2725C61.8099 54.4631 61.8003 56.4119 61.8667 56.6028C61.9954 56.9748 66.7273 57.4884 67.2155 57.1832C67.3775 57.0817 67.5084 55.0557 67.5084 52.6446V48.2894H64.7684H62.0281L61.8874 52.2725ZM89.727 52.6446C89.727 55.0401 89.831 57.0523 89.9584 57.1164C90.0859 57.1804 91.9606 57.1741 94.1244 57.1026L98.0589 56.9723V52.6309V48.2894H93.893H89.727V52.6446ZM52.1559 48.8339L49.9186 48.9417V52.7927V56.6437L52.0781 56.8589C53.2659 56.9773 54.3768 56.9873 54.5469 56.8808C54.9045 56.6571 54.9811 48.5684 54.6246 48.664C54.4975 48.698 53.3866 48.7745 52.1559 48.8339ZM105.284 48.8883C105.214 48.9598 105.157 50.7286 105.157 52.8192C105.157 54.9098 105.214 56.6787 105.284 56.7502C105.354 56.8221 106.238 56.8339 107.248 56.7768L109.084 56.6731L109.272 54.6327C109.375 53.5109 109.376 51.7764 109.273 50.7789L109.086 48.9654L107.249 48.8617C106.238 48.8045 105.354 48.8167 105.284 48.8883ZM39.5036 49.7677L38.1921 49.8873V52.957C38.1921 56.4612 38.1381 56.3997 41.2009 56.4075L42.821 56.4119V52.9754V49.539L41.8181 49.5937C41.2666 49.6237 40.2251 49.7021 39.5036 49.7677ZM116.327 52.9904L116.312 56.4416L118.063 56.3488L119.815 56.2557L119.902 53.0926C120 49.5493 120.003 49.5531 117.462 49.5434L116.343 49.539L116.327 52.9904ZM127.067 53.107V55.7871H128.103C128.674 55.7871 129.785 55.6977 130.572 55.5884L132.004 55.3897V53.2747V51.1598L130.384 50.9576C129.493 50.8464 128.382 50.6815 127.915 50.5912L127.067 50.4265V53.107ZM27.4686 51.0173L26.157 51.1369V53.1088V55.0804L27.3143 55.2741C27.9509 55.3806 29.0615 55.4694 29.783 55.4712L31.0945 55.4747V53.1316V50.7886L29.9373 50.8433C29.301 50.8733 28.19 50.9517 27.4686 51.0173ZM15.9735 52.8071C13.8106 53.2169 13.9081 53.3575 16.7194 53.8836C19.1427 54.3369 19.0594 54.3581 19.0594 53.2878C19.0594 52.2238 19.0548 52.2232 15.9735 52.8071ZM139.102 53.6249C139.102 54.8471 139.137 54.8927 139.95 54.7349C140.417 54.6446 141.528 54.4797 142.419 54.3685C143.684 54.2107 144.039 54.0461 144.039 53.6168C144.039 53.1791 143.602 52.9939 141.897 52.709C138.996 52.2238 139.102 52.1891 139.102 53.6249ZM5.17279 54.9817C4.40902 55.1954 3.57583 55.4425 3.32124 55.5306C3.03085 55.6309 3.57397 56.0579 4.7781 56.6762C5.8341 57.2182 6.7716 57.6615 6.8611 57.6615C6.9509 57.6615 7.02434 56.9586 7.02434 56.0995C7.02434 55.2404 6.92034 54.55 6.7929 54.5653C6.66545 54.5809 5.93655 54.768 5.17279 54.9817ZM152.371 55.0582C152.371 55.1351 152.525 55.8171 152.713 56.574L153.056 57.9499L154.603 57.1563C155.453 56.7199 156.028 56.2494 155.88 56.1104C155.562 55.8118 152.371 54.8549 152.371 55.0582ZM14.122 60.9011C14.122 61.0211 18.5527 62.66 18.8764 62.66C18.977 62.66 19.0594 62.3994 19.0594 62.0811C19.0594 61.6072 18.67 61.4369 16.9169 61.1439C14.6314 60.7615 14.122 60.7174 14.122 60.9011ZM142.805 61.5834C142.55 61.639 141.544 61.7734 140.567 61.8821C138.925 62.0655 138.793 62.1392 138.793 62.8721C138.793 63.3741 138.934 63.6112 139.179 63.52C139.391 63.441 140.502 63.063 141.648 62.6803C142.793 62.2973 143.731 61.8552 143.731 61.6971C143.731 61.4085 143.653 61.3991 142.805 61.5834ZM0.068062 63.187C0.18255 63.649 0.509966 64.2142 0.795722 64.4429C1.87857 65.3092 7.24684 68.9081 7.45637 68.9081C7.57672 68.9081 7.63288 68.2732 7.58135 67.4969L7.48723 66.0861L3.67334 64.2164C-0.107218 62.3629 -0.138695 62.3541 0.068062 63.187ZM26.157 62.7615C26.157 63.0064 26.2404 63.629 26.3425 64.1451C26.511 64.9983 26.714 65.1339 28.5798 65.6381C29.7083 65.943 30.8054 66.2564 31.0174 66.3341C31.2966 66.4366 31.4031 65.9936 31.4031 64.73C31.4031 62.7543 31.541 62.8468 28.0857 62.5066C26.5344 62.3538 26.157 62.4038 26.157 62.7615ZM128.714 62.8905L126.814 63.0008L126.693 64.7828C126.627 65.7631 126.615 66.6231 126.665 66.6944C126.715 66.7656 127.868 66.5669 129.226 66.2529L131.695 65.6819V64.1708C131.695 62.9174 131.604 62.6703 131.155 62.7203C130.859 62.7534 129.76 62.8299 128.714 62.8905ZM38.5007 65.6734V67.9265L40.2751 68.2732C41.2509 68.4641 42.3655 68.6884 42.7519 68.7722C43.4502 68.923 43.453 68.9102 43.2493 66.3385C43.137 64.9168 43.0293 63.734 43.0102 63.7103C42.991 63.6868 41.9687 63.6119 40.738 63.5441L38.5007 63.4207V65.6734ZM116.152 64.3001C116.05 64.6868 115.964 65.888 115.962 66.9696L115.957 68.9365L117.114 68.7387C119.194 68.3835 119.352 68.2873 119.352 67.3685C119.352 66.8887 119.44 65.8437 119.548 65.0467L119.744 63.5972H118.041C116.536 63.5972 116.316 63.6787 116.152 64.3001ZM50.3972 66.7562C50.5201 68.3695 50.775 69.7925 50.9638 69.9187C51.1527 70.0449 51.8627 70.152 52.5416 70.157C53.2206 70.162 54.0858 70.2501 54.4645 70.3529C55.1514 70.5394 55.1523 70.5338 54.9613 67.4591C54.8561 65.7646 54.7549 64.3551 54.736 64.3266C54.7172 64.2982 53.6831 64.1732 52.438 64.0492L50.1741 63.8237L50.3972 66.7562ZM105.388 64.247C104.937 64.5128 104.848 65.0283 104.848 67.3616V70.1577L106.314 70.153C108.525 70.1458 108.649 69.9768 108.801 66.7447L108.935 63.9096L107.432 63.919C106.605 63.9243 105.685 64.0717 105.388 64.247ZM153.688 65.5313C151.227 66.7069 150.488 67.2064 150.343 67.7931C149.911 69.5338 150.263 69.5579 152.834 67.963C156.031 65.9805 157.096 65.0858 156.958 64.4985C156.868 64.1183 156.211 64.326 153.688 65.5313ZM62.0435 67.4888C62.1472 69.3407 62.2734 70.8909 62.3243 70.9337C62.3749 70.9768 63.6503 71.1096 65.1581 71.2292L67.8997 71.4466L67.7546 68.1458C67.6747 66.3304 67.5349 64.7696 67.4439 64.6775C67.3528 64.585 66.058 64.4225 64.5665 64.3157L61.8553 64.122L62.0435 67.4888ZM90.1127 64.4288C89.8371 64.5416 89.727 65.5647 89.727 68.0158V71.4448L93.5072 71.2286C95.5865 71.1099 97.3449 70.9612 97.4152 70.8984C97.4856 70.8356 97.6078 69.3076 97.6871 67.5032L97.8312 64.222L94.1648 64.2467C92.1482 64.2601 90.325 64.3423 90.1127 64.4288ZM74.814 67.7365C74.8964 69.4976 75.0195 71.1189 75.0877 71.3392C75.1812 71.6419 76.0986 71.7181 78.8432 71.6516L82.4751 71.5635L82.5624 68.0489L82.6497 64.5344H78.6569H74.6643L74.814 67.7365ZM15.1709 71.0127C15.2853 71.9984 15.4779 72.899 15.5992 73.0143C16.0053 73.401 19.7417 74.8821 19.9019 74.72C19.9889 74.6316 19.9655 73.6644 19.8497 72.5704L19.6393 70.581L17.5529 69.9006C16.4055 69.5266 15.3535 69.2205 15.2147 69.2205C15.0761 69.2205 15.0564 70.0268 15.1709 71.0127ZM140.49 70.59L138.33 71.2751L138.129 73.1377C138.019 74.1618 137.964 75.0384 138.008 75.0855C138.052 75.1324 139.076 74.7831 140.284 74.3089C142.441 73.4623 142.484 73.4235 142.672 72.1514C143.011 69.8631 142.941 69.8125 140.49 70.59ZM27.1914 74.6094C27.2985 75.5113 27.3874 76.5454 27.3886 76.9068C27.3911 77.4548 27.7805 77.6813 29.7262 78.2661C31.0106 78.6519 32.1382 78.8897 32.2326 78.7941C32.3267 78.6988 32.3073 77.5745 32.1888 76.2958L31.9737 73.9706L30.0049 73.4701C26.9594 72.6956 26.964 72.6935 27.1914 74.6094ZM128.147 73.8581L125.987 74.3832L125.739 76.68C125.603 77.9434 125.535 79.0206 125.588 79.074C125.641 79.1274 126.755 78.8672 128.064 78.496L130.445 77.8206L130.619 76.4104C130.715 75.6347 130.854 74.6132 130.928 74.1408C131.085 73.1417 131.09 73.1424 128.147 73.8581ZM2.70405 74.6354C2.70405 75.0302 9.02371 79.5498 9.12894 79.2302C9.36717 78.506 8.85275 78.0115 6.51023 76.7132C5.1805 75.9762 3.78042 75.1677 3.39839 74.9165C3.01635 74.665 2.70405 74.5385 2.70405 74.6354ZM39.5644 77.9943C39.6888 79.4392 39.923 80.7038 40.0844 80.805C40.4884 81.0578 44.409 81.775 44.5587 81.6235C44.6938 81.4867 44.0727 76.6869 43.8785 76.3692C43.8107 76.2577 42.9676 76.0668 42.0051 75.9449C41.0429 75.8234 40.0492 75.6435 39.7968 75.5454C39.4027 75.3923 39.37 75.7372 39.5644 77.9943ZM116.424 76.0596L115.194 76.2495L114.869 78.8269C114.503 81.7232 114.42 81.6288 116.94 81.2071L118.076 81.0168L118.276 78.9456C118.386 77.8063 118.543 76.6282 118.626 76.3276C118.788 75.7394 118.626 75.7197 116.424 76.0596ZM150.828 77.3911C149.066 78.4083 148.681 78.7797 148.673 79.4698C148.668 79.8513 152.121 77.3814 152.53 76.7103C152.799 76.2708 152.703 76.3089 150.828 77.3911ZM51.5915 79.6079C51.7069 80.8538 51.8674 82.1012 51.9482 82.3802C52.0942 82.8822 53.5156 83.2683 55.2446 83.2752C56.0957 83.2786 56.0957 83.278 55.9226 81.4823C55.5501 77.6172 55.6186 77.7603 54.0352 77.5407C51.2341 77.1521 51.3548 77.0502 51.5915 79.6079ZM104.848 77.6213C104.135 77.8212 104.056 78.0327 103.812 80.4208C103.667 81.8416 103.598 83.0546 103.659 83.1165C103.72 83.1784 104.532 83.1349 105.462 83.0196L107.154 82.81L107.38 81.0918C107.504 80.1468 107.671 78.9168 107.751 78.3583C107.892 77.3658 107.87 77.3436 106.757 77.3742C106.131 77.3914 105.272 77.5026 104.848 77.6213ZM63.0032 81.1284C63.1226 82.7301 63.2479 84.0653 63.2813 84.0959C63.3149 84.1265 64.5749 84.2015 66.0811 84.2624L68.8196 84.373L68.6106 81.5704C68.4958 80.0293 68.3743 78.7457 68.3409 78.7178C68.3073 78.6904 67.0436 78.5663 65.5331 78.442L62.7863 78.2161L63.0032 81.1284ZM91.2341 78.5098L89.5011 78.6213L89.3082 80.2471C89.202 81.1412 89.1138 82.4442 89.1126 83.1424L89.1098 84.412L91.0385 84.3052C92.0994 84.2465 93.6822 84.1237 94.5564 84.0325C96.3324 83.8469 96.2364 84.0247 96.6894 80.0765L96.8956 78.2802L94.9314 78.3392C93.851 78.3717 92.1874 78.4486 91.2341 78.5098ZM75.6404 80.5451C75.7475 81.447 75.8363 82.7126 75.8376 83.3567L75.8403 84.5283H78.9263H82.0122V83.1662C82.0122 82.4167 82.1004 81.1515 82.2084 80.3545L82.4047 78.905H78.9253H75.4456L75.6404 80.5451ZM17.29 83.0662C17.5751 84.3283 17.7161 84.4701 19.4609 85.2508C20.4873 85.7101 21.3927 86.0194 21.4726 85.9381C21.5528 85.8569 21.4939 85.1984 21.3418 84.4748C21.0801 83.2293 20.9665 83.1203 19.2248 82.4376C18.2127 82.0412 17.2946 81.7166 17.1847 81.7166C17.0749 81.7166 17.1221 82.3239 17.29 83.0662ZM138.557 82.7179C137.356 83.1968 136.892 83.5586 136.782 84.1034C136.7 84.5089 136.561 85.1921 136.473 85.6217C136.275 86.587 136.306 86.5867 138.49 85.5942C139.881 84.9622 140.306 84.6039 140.436 83.954C140.527 83.4967 140.696 82.8763 140.81 82.5757C141.081 81.8666 140.617 81.8959 138.557 82.7179ZM29.0776 87.2618C29.1948 88.0781 29.4537 88.9085 29.6525 89.1075C29.8515 89.3065 30.9603 89.7523 32.1166 90.0984L34.2187 90.7273L34.0558 89.8925C33.9663 89.4336 33.8058 88.5448 33.6993 87.9172C33.5123 86.815 33.4398 86.7598 31.5426 86.2771C28.7724 85.5726 28.8313 85.5492 29.0776 87.2618ZM126.449 86.3692L124.444 86.9L124.053 88.8853C123.838 89.9772 123.705 90.9138 123.757 90.9666C123.809 91.0197 124.884 90.7317 126.145 90.3268L128.438 89.5911L128.826 88.075C129.497 85.4583 129.603 85.5345 126.449 86.3692ZM7.92543 88.8238C8.61359 90.1818 9.25947 90.9138 10.5725 91.8241C11.5276 92.4861 12.3543 92.9782 12.4096 92.9175C12.4648 92.8566 12.279 92.0394 11.9973 91.1015C11.5177 89.5061 11.3554 89.3196 9.48598 88.2177C8.38677 87.5698 7.38107 87.0368 7.25146 87.0337C7.12155 87.0303 7.42489 87.8357 7.92543 88.8238ZM148.078 88.7007C146.617 89.5704 146.34 89.8988 145.857 91.3371C145.249 93.1494 145.306 93.1547 147.364 91.4817C148.492 90.5651 150.151 88.109 149.847 87.8057C149.793 87.7516 148.997 88.1543 148.078 88.7007ZM41.4385 90.4939C41.6545 91.5414 41.9495 92.5064 42.0946 92.6386C42.3933 92.9107 46.2149 93.6926 46.3883 93.5171C46.4504 93.4543 46.3498 92.478 46.1649 91.3477L45.8285 89.2927L43.7252 88.9413C42.5686 88.7479 41.4925 88.5895 41.3339 88.5895C41.167 88.5895 41.2111 89.3905 41.4385 90.4939ZM115.186 88.7941C114.846 88.8669 114.281 88.9875 113.929 89.0622C113.41 89.1728 113.218 89.5914 112.912 91.2743C112.704 92.4161 112.603 93.4202 112.687 93.5058C112.772 93.5914 113.501 93.5389 114.308 93.3899C115.681 93.1359 115.799 93.0375 116.127 91.8691C116.32 91.1821 116.566 90.1634 116.673 89.6048C116.878 88.5364 116.74 88.4614 115.186 88.7941ZM103.928 90.4327L102.544 90.6201L102.114 92.8969C101.876 94.149 101.735 95.2137 101.799 95.2628C101.864 95.3121 102.564 95.2937 103.355 95.2218L104.794 95.0916L105.284 92.8957C105.84 90.4043 105.866 90.1328 105.542 90.1984C105.415 90.2243 104.688 90.3296 103.928 90.4327ZM53.3239 90.6982C53.3465 91.1846 54.1741 94.8754 54.2812 94.9669C54.3429 95.0194 55.132 95.1469 56.0352 95.2503L57.6772 95.4383L57.5128 94.5911C57.4223 94.1253 57.26 93.0925 57.1526 92.2962C56.9665 90.9213 56.8999 90.8388 55.8294 90.6595C54.2907 90.4021 53.311 90.4171 53.3239 90.6982ZM64.2808 92.22C64.3731 92.7148 64.5502 93.7501 64.6749 94.5211C64.8903 95.856 64.9597 95.9335 66.1274 96.1434C66.802 96.2643 67.8904 96.3718 68.5462 96.3815L69.7382 96.3996L69.617 94.2296C69.5503 93.0359 69.396 91.9585 69.2741 91.8348C69.1519 91.7114 67.941 91.5452 66.5829 91.4655L64.1135 91.3209L64.2808 92.22ZM89.3792 91.6092C88.8503 91.752 88.5019 93.1787 88.496 95.2281C88.4926 96.399 88.4932 96.3996 89.8041 96.3968C90.5253 96.3955 91.8334 96.3068 92.7111 96.2L94.3065 96.006L94.6398 94.0684C94.8231 93.0028 94.973 91.9669 94.973 91.766C94.973 91.4102 90.574 91.2868 89.3792 91.6092ZM76.7399 91.9478C76.6621 92.6389 76.8192 95.6954 76.9565 96.1653C77.0889 96.618 77.4848 96.712 79.2555 96.712H81.395L81.3984 95.3843C81.4002 94.6542 81.4879 93.5295 81.5931 92.8851L81.7844 91.7135H79.2753C77.8952 91.7135 76.7544 91.8188 76.7399 91.9478ZM20.4416 94.1347C20.5592 94.4352 20.9357 95.4315 21.2782 96.3481C21.8105 97.7729 22.0864 98.0956 23.1804 98.573C23.8839 98.8801 24.4842 99.1132 24.5138 99.0907C24.5434 99.0682 24.3255 98.1372 24.0299 97.0219C23.5269 95.1247 23.4038 94.9491 22.1244 94.3037C20.4515 93.4599 20.1663 93.4311 20.4416 94.1347ZM135.722 94.6501C134.618 95.0538 134.664 94.9597 133.745 98.6752L133.53 99.5452L134.701 98.9404C135.653 98.4483 135.981 98.0238 136.456 96.6648C136.777 95.7457 137.102 94.8182 137.178 94.6033C137.344 94.1331 137.115 94.1406 135.722 94.6501ZM31.7117 98.0322C31.7117 98.2703 31.9925 99.3068 32.3357 100.336L32.9596 102.206L34.8704 102.725C35.9215 103.01 36.8312 103.192 36.8926 103.13C36.9537 103.068 36.7417 102.067 36.4214 100.905C35.8885 98.9723 35.7475 98.7598 34.7671 98.4162C32.6909 97.6886 31.7117 97.5655 31.7117 98.0322ZM123.672 98.5527L121.975 99.0825L121.379 101.173C121.051 102.323 120.86 103.342 120.955 103.437C121.049 103.533 122.045 103.378 123.169 103.092L125.211 102.573L125.83 100.468C126.171 99.31 126.449 98.2725 126.449 98.1622C126.449 97.8467 125.512 97.9782 123.672 98.5527ZM43.7693 100.818C43.7816 101.051 44.0942 102.151 44.4636 103.262L45.1354 105.283L47.1413 105.664C48.2445 105.874 49.2317 106.054 49.3351 106.065C49.6288 106.095 48.3389 101.579 47.9902 101.355C47.8193 101.245 47.0012 101.064 46.1723 100.953C45.3434 100.842 44.4584 100.67 44.206 100.572C43.9344 100.467 43.756 100.567 43.7693 100.818ZM111.955 101.189C110.587 101.551 110.571 101.571 109.98 103.669C109.653 104.831 109.475 105.874 109.585 105.986C109.696 106.098 110.437 106.06 111.232 105.902C112.396 105.671 112.719 105.463 112.888 104.835C113.003 104.405 113.317 103.315 113.585 102.413C114.128 100.587 114.154 100.606 111.955 101.189ZM56.2065 103.194C56.2932 103.495 56.5861 104.535 56.8573 105.506C57.3424 107.242 57.3711 107.273 58.6008 107.391L59.8513 107.512L59.6556 106.251C59.5479 105.558 59.3214 104.464 59.152 103.819C58.8536 102.684 58.8008 102.648 57.4464 102.648C56.2611 102.648 56.0729 102.731 56.2065 103.194ZM99.9028 103.975C99.7155 104.705 99.4362 105.787 99.2819 106.379C99.1276 106.971 99.0606 107.515 99.1329 107.588C99.2054 107.661 99.73 107.633 100.299 107.525C101.261 107.342 101.381 107.179 102.011 105.2C102.383 104.03 102.688 102.977 102.688 102.86C102.688 102.743 102.138 102.648 101.465 102.648C100.286 102.648 100.231 102.695 99.9028 103.975ZM66.8881 105.85L67.4124 108.115L69.2025 108.21L70.9927 108.305L70.7961 106.648C70.6881 105.736 70.5983 104.675 70.5971 104.288C70.5946 103.627 70.4662 103.585 68.4789 103.585H66.3635L66.8881 105.85ZM88.0627 104.079C87.9597 104.351 87.8751 105.44 87.8748 106.5L87.8742 108.427L89.6828 108.323L91.4915 108.22L91.8504 106.605C92.0479 105.717 92.292 104.675 92.3929 104.288C92.5703 103.608 92.5049 103.585 90.4133 103.585C88.7253 103.585 88.209 103.694 88.0627 104.079ZM77.8042 105.347C77.9122 106.144 78.0005 107.198 78.0005 107.69C78.0005 108.541 78.0668 108.583 79.3891 108.583H80.7778V106.24V103.897H79.1929H77.6079L77.8042 105.347ZM27.1069 108.818C28.0549 110.423 28.4206 110.787 28.0277 109.734C27.5003 108.32 27.084 107.646 26.7381 107.646C26.5607 107.646 26.7267 108.173 27.1069 108.818ZM36.032 110.648C36.032 110.722 36.6507 112.03 37.4068 113.554C38.7072 116.175 38.8574 116.351 40.1841 116.809C40.9556 117.075 41.5866 117.243 41.5866 117.182C41.5866 116.899 39.6258 111.834 39.4308 111.613C39.183 111.333 36.032 110.438 36.032 110.648ZM119.75 111.504C118.152 111.946 118.038 112.069 117.256 114.207C116.911 115.152 116.535 116.162 116.421 116.452C116.236 116.924 116.424 116.91 118.225 116.317C119.36 115.943 120.296 115.442 120.377 115.165C120.454 114.896 120.879 113.867 121.32 112.879C122.222 110.857 122.19 110.828 119.75 111.504ZM48.1566 114.246C48.3973 114.826 48.9145 116.073 49.3054 117.018C50.2399 119.277 50.3821 119.399 52.4805 119.752C54.0726 120.02 54.2488 119.997 54.071 119.551C53.9609 119.275 53.4523 117.898 52.941 116.492C52.4293 115.085 51.8396 113.868 51.6304 113.787C51.4212 113.706 50.4553 113.538 49.4841 113.416L47.7184 113.192L48.1566 114.246ZM107.518 113.853C106.757 114.024 106.5 114.402 105.59 116.688C105.012 118.139 104.539 119.442 104.539 119.584C104.539 119.726 104.887 119.769 105.311 119.68C107.674 119.183 107.328 119.641 109.734 113.83C109.851 113.549 108.825 113.56 107.518 113.853ZM60.1021 115.062C60.1021 115.189 60.6231 116.538 61.2594 118.06C62.2768 120.494 63.2337 121.762 63.6982 121.292C63.7799 121.209 63.4025 119.722 62.8591 117.986C61.9096 114.955 61.8367 114.831 60.9866 114.831C60.5002 114.831 60.1021 114.935 60.1021 115.062ZM96.6709 115.691C96.2102 116.836 94.973 120.576 94.973 120.822C94.973 120.964 95.1616 121.08 95.3921 121.08C95.718 121.08 98.3675 115.921 98.3675 115.287C98.3675 114.865 96.8582 115.225 96.6709 115.691ZM69.6685 115.67C69.6685 116.558 71.6389 121.704 71.9789 121.704C72.2699 121.704 72.3468 121.368 72.2462 120.533C72.169 119.889 72.0086 118.518 71.8901 117.487C71.679 115.653 71.6527 115.61 70.6714 115.515C70.12 115.461 69.6685 115.531 69.6685 115.67ZM87.9948 115.671C87.4446 115.781 87.3122 116.098 87.1462 117.705C86.7824 121.23 86.9268 121.354 88.0411 118.472C89.2104 115.448 89.2135 115.437 88.8783 115.499C88.7509 115.522 88.3534 115.6 87.9948 115.671ZM79.0957 118.167C79.2179 119.487 79.4259 120.928 79.5583 121.369C79.7669 122.065 79.8027 122.001 79.8255 120.891C79.84 120.186 79.9412 118.745 80.0501 117.689C80.2399 115.851 80.2189 115.769 79.561 115.769C78.8905 115.769 78.879 115.828 79.0957 118.167ZM54.8561 127.608C54.8561 128.223 56.6154 129.858 57.5621 130.125C59.2097 130.588 59.2088 130.589 58.3737 129.076C57.676 127.813 57.5026 127.693 56.2352 127.59C55.4767 127.529 54.8561 127.537 54.8561 127.608ZM101.527 127.579C100.703 127.662 100.404 127.911 99.88 128.95L99.2399 130.22L100.115 129.999C101.077 129.757 101.961 129.056 102.433 128.164C102.803 127.464 102.787 127.453 101.527 127.579ZM66.5826 128.697C66.5826 129.032 67.5006 130.764 67.6784 130.764C67.7633 130.764 67.6034 130.307 67.3229 129.749C66.7498 128.608 66.5826 128.371 66.5826 128.697ZM81.6801 129.139L80.268 129.232L80.5001 130.964C80.7164 132.578 80.9469 133.236 81.1864 132.925C81.7243 132.225 83.2567 129.407 83.1851 129.25C83.1339 129.138 82.4569 129.088 81.6801 129.139Z" fill="url(#paint0_linear_64_1142)" fill-opacity="0.4"/>
<defs>
<linearGradient id="paint0_linear_64_1142" x1="126" y1="3.99999" x2="19.2921" y2="90.7443" gradientUnits="userSpaceOnUse">
<stop stop-color="#0094D4"/>
<stop offset="1" stop-opacity="0"/>
<stop offset="1" stop-color="#2D80A4" stop-opacity="0"/>
</linearGradient>
</defs>
</svg>
