<svg width="165" height="92" viewBox="0 0 165 92" fill="none" xmlns="http://www.w3.org/2000/svg">
<g opacity="0.8">
<rect y="1.5" width="165" height="82" fill="white"/>
<line y1="0.7" x2="163" y2="0.7" stroke="#F5F5F5" stroke-width="0.6"/>
<line x1="60.3" y1="1" x2="60.3" y2="92" stroke="#F5F5F5" stroke-width="0.6"/>
<line x1="75.3" y1="1" x2="75.3" y2="92" stroke="#F5F5F5" stroke-width="0.6"/>
<line x1="30.3" y1="1" x2="30.3" y2="92" stroke="#F5F5F5" stroke-width="0.6"/>
<line x1="45.3" y1="1" x2="45.3" y2="92" stroke="#F5F5F5" stroke-width="0.6"/>
<line x1="15.3" y1="1" x2="15.3" y2="92" stroke="#F5F5F5" stroke-width="0.6"/>
<line x1="0.3" y1="1" x2="0.299996" y2="92" stroke="#F5F5F5" stroke-width="0.6"/>
<line x1="89.3" y1="1" x2="89.3" y2="92" stroke="#F5F5F5" stroke-width="0.6"/>
<line x1="104.3" y1="1" x2="104.3" y2="92" stroke="#F5F5F5" stroke-width="0.6"/>
<line x1="119.3" y1="1" x2="119.3" y2="92" stroke="#F5F5F5" stroke-width="0.6"/>
<line x1="134.3" y1="1" x2="134.3" y2="92" stroke="#F5F5F5" stroke-width="0.6"/>
<line x1="148.3" y1="1" x2="148.3" y2="92" stroke="#F5F5F5" stroke-width="0.6"/>
<line x1="163.3" y1="1" x2="163.3" y2="92" stroke="#F5F5F5" stroke-width="0.6"/>
<line y1="9.7" x2="163" y2="9.7" stroke="#F5F5F5" stroke-width="0.6"/>
<line y1="18.7" x2="163" y2="18.7" stroke="#F5F5F5" stroke-width="0.6"/>
<line y1="27.7" x2="163" y2="27.7" stroke="#F5F5F5" stroke-width="0.6"/>
<line y1="36.7" x2="163" y2="36.7" stroke="#F5F5F5" stroke-width="0.6"/>
<line y1="45.7" x2="163" y2="45.7" stroke="#F5F5F5" stroke-width="0.6"/>
<line y1="54.7" x2="163" y2="54.7" stroke="#F5F5F5" stroke-width="0.6"/>
<line y1="63.7" x2="163" y2="63.7" stroke="#F5F5F5" stroke-width="0.6"/>
<line y1="72.7" x2="163" y2="72.7" stroke="#F5F5F5" stroke-width="0.6"/>
<line y1="81.7" x2="163" y2="81.7" stroke="#F5F5F5" stroke-width="0.6"/>
<line y1="91.7" x2="163" y2="91.7" stroke="#F5F5F5" stroke-width="0.6"/>
</g>
<path d="M8 81.4757L51.806 67.9934L80.3516 36.4783L130.188 40.7045L159 6.5" stroke="#35363C" stroke-width="1.5" stroke-linecap="round"/>
<circle cx="7.5" cy="81" r="2.5" fill="white" stroke="#35363C" stroke-width="2"/>
<circle cx="51.5" cy="68" r="2.5" fill="white" stroke="#35363C" stroke-width="2"/>
<circle cx="80.5" cy="37" r="2.5" fill="white" stroke="#35363C" stroke-width="2"/>
<circle cx="129.5" cy="41" r="2.5" fill="white" stroke="#35363C" stroke-width="2"/>
<circle cx="158.5" cy="7" r="2.5" fill="white" stroke="#35363C" stroke-width="2"/>
</svg>
