<svg width="15" height="14" viewBox="0 0 15 14" fill="none" xmlns="http://www.w3.org/2000/svg">
<path fill-rule="evenodd" clip-rule="evenodd" d="M1.55369 0.0461125C1.06068 0.178675 0.673989 0.570879 0.543935 1.07021C0.478193 1.32262 0.478193 12.6774 0.543935 12.9298C0.675681 13.4356 1.06316 13.8243 1.56623 13.9553C1.69074 13.9878 1.8877 14 2.28571 14H2.83375V11.8186C2.83375 9.95397 2.84023 9.61237 2.87841 9.46581C3.00945 8.96274 3.39819 8.57526 3.90396 8.44352C4.15871 8.37716 10.8462 8.37824 11.1013 8.44465C11.6043 8.5757 11.9918 8.96443 12.1236 9.47021C12.1603 9.61109 12.1671 9.97914 12.1671 11.8186V14H12.7151C13.1131 14 13.3101 13.9878 13.4346 13.9553C13.9377 13.8243 14.3252 13.4356 14.4569 12.9298C14.5204 12.6862 14.5229 3.22898 14.4596 3.08344C14.4068 2.96222 11.5091 0.071225 11.3996 0.0305083C11.354 0.0135917 11.0914 0 10.8099 0H10.3023L10.2941 1.99063L10.2858 3.98125L10.2072 4.1302C10.0908 4.35091 10.0029 4.44173 9.79878 4.55242L9.615 4.65208H7.50042H5.38584L5.20136 4.55207C5.00209 4.44401 4.88437 4.32122 4.78083 4.1134L4.715 3.98125L4.70675 1.99063L4.69849 0L3.20466 0.001925C1.99658 0.00347083 1.68076 0.0119291 1.55369 0.0461125ZM5.63375 1.86667V3.73333H7.50042H9.36709V1.86667V0H7.50042H5.63375V1.86667ZM4.04417 9.37431C3.93681 9.42226 3.83956 9.52502 3.79821 9.63419C3.77718 9.68963 3.76709 10.4118 3.76709 11.8581V14H7.50097H11.2348L11.227 11.8146C11.2193 9.65907 11.2184 9.62815 11.159 9.54873C11.126 9.50443 11.0627 9.44113 11.0184 9.40806C10.9382 9.34821 10.9214 9.34789 7.53475 9.34159C4.743 9.33637 4.11595 9.34226 4.04417 9.37431Z" fill="white"/>
</svg>
