<svg width="36" height="33" viewBox="0 0 36 33" fill="none" xmlns="http://www.w3.org/2000/svg">
<path fill-rule="evenodd" clip-rule="evenodd" d="M17.648 0.0989229C17.528 0.1673 17.4327 0.273333 17.3548 0.425494L17.2394 0.65079L17.2273 5.0361L17.2151 9.42136L15.6485 9.42244C14.7869 9.42303 14.0059 9.44125 13.9129 9.46295C13.7322 9.50509 13.6116 9.5993 13.0443 10.1413C11.7182 11.4082 9.683 13.085 7.63162 14.601C6.68524 15.3004 4.44193 16.8192 3.80881 17.1892C3.69095 17.2581 3.59455 17.3292 3.59455 17.3471C3.59455 17.3736 4.71077 17.6527 5.60181 17.8492C6.28288 17.9993 7.32995 18.0791 7.94737 18.028C8.82186 17.9557 10.2364 17.687 11.1597 17.4181C11.433 17.3384 11.3933 17.4343 11.6466 16.241C11.8392 15.3334 11.9215 15.1571 12.2257 15.0002C12.47 14.8742 12.507 14.8768 13.4279 15.085C14.5334 15.3349 15.8104 15.5438 16.7807 15.6333C17.4938 15.6991 19.2103 15.6619 19.8808 15.566C20.7942 15.4355 21.7452 15.2617 22.6411 15.0614C23.5274 14.8633 23.5474 14.8609 23.7782 14.9283C24.1673 15.042 24.2042 15.099 24.3634 15.8332C24.4013 16.0076 24.4851 16.395 24.5498 16.6941C24.6144 16.9932 24.6811 17.2524 24.6978 17.2702C24.7491 17.3244 26.1317 17.6555 26.8182 17.7779C28.247 18.0325 29.0932 18.032 30.4071 17.7757C30.9761 17.6647 32.4686 17.3153 32.4975 17.2863C32.5054 17.2783 32.2117 17.0914 31.8447 16.8711C31.1506 16.4545 29.682 15.4786 29.0574 15.0191C28.3338 14.4867 28.0149 14.2479 27.7719 14.0566C27.6354 13.9492 27.5035 13.846 27.4787 13.8273C27.0388 13.4955 25.4557 12.1956 24.9076 11.7163C24.7091 11.5427 24.405 11.2765 24.2317 11.1247C24.0584 10.9729 23.6928 10.6448 23.4192 10.3956C23.1456 10.1464 22.8277 9.85736 22.7128 9.75332C22.5978 9.64928 22.4256 9.53817 22.3299 9.50641C22.2077 9.46576 21.6542 9.4412 20.4646 9.42367L18.773 9.3987L18.7505 4.95802L18.7279 0.517344L18.6032 0.332829C18.3794 0.0017266 17.9874 -0.0942918 17.648 0.0989229ZM20.3743 4.07442C20.3743 6.40092 20.3862 7.01958 20.4307 7.01895C20.4618 7.0185 20.6799 6.98759 20.9156 6.9503C21.4841 6.86031 22.9814 6.79673 24.5918 6.79429C26.8473 6.7908 28.0287 6.63084 29.5085 6.12855C30.2535 5.87566 31.4774 5.26452 32.1473 4.81089C32.7734 4.38681 32.8814 4.23863 32.8567 3.83716C32.8386 3.5419 32.7409 3.40238 32.4458 3.2504C32.21 3.12896 31.9822 3.15647 31.3353 3.38439C29.4196 4.05924 27.3541 3.80494 24.1666 2.50169C22.2186 1.70518 20.6529 1.12907 20.4363 1.12907C20.3844 1.12907 20.3743 1.60803 20.3743 4.07442ZM13.1398 16.7506C13.1268 16.7943 13.0542 17.1257 12.9786 17.4871C12.9029 17.8484 12.8114 18.2767 12.7752 18.4387C12.7389 18.6006 12.7086 18.7587 12.7077 18.7898C12.7065 18.8348 13.7954 18.8465 18.0062 18.8465C20.9213 18.8465 23.3063 18.8397 23.3063 18.8313C23.3063 18.823 23.2267 18.4508 23.1295 18.0044C23.0323 17.5579 22.9291 17.0745 22.9004 16.9301C22.8583 16.7191 22.8333 16.672 22.7727 16.6898C22.4199 16.7935 20.5625 17.102 19.7428 17.1929C18.3677 17.3455 17.4052 17.3333 15.8636 17.1438C15.3052 17.0751 13.8674 16.8378 13.5632 16.7641C13.1697 16.6687 13.1642 16.6686 13.1398 16.7506ZM2.95972 18.9711C2.95787 19.0147 2.94776 19.1014 2.93725 19.1637C2.92674 19.226 2.86612 19.6134 2.80252 20.0246C2.67658 20.8388 2.64113 21.0368 2.39674 22.2903C2.24906 23.0478 2.00417 24.2053 1.74499 25.3714C1.62942 25.8912 1.01281 28.368 0.865041 28.906C0.806808 29.1178 0.684749 29.5664 0.593768 29.9028C0.502832 30.2393 0.326509 30.8584 0.202014 31.2785C-0.0524341 32.1373 -0.0613202 32.3595 0.146082 32.677C0.359843 33.0043 0.0248795 32.9831 5.02363 32.9848L9.52612 32.9863L9.66933 32.1356C10.0496 29.8769 10.5661 26.8071 10.834 25.2129C10.9973 24.241 11.2418 22.7878 11.3773 21.9836C11.5128 21.1794 11.6236 20.5047 11.6236 20.4842C11.6236 20.4637 11.5677 20.4219 11.4995 20.3913C11.0353 20.183 10.9201 19.9814 10.9604 19.4471C10.9808 19.1763 10.9739 19.1157 10.9248 19.1346C10.8913 19.1475 10.5223 19.2306 10.1048 19.3193C9.0971 19.5333 8.02699 19.6668 7.38354 19.6588C6.41577 19.6467 4.77139 19.3778 3.50434 19.0245C2.94519 18.8685 2.96396 18.8703 2.95972 18.9711ZM32.463 19.0315C31.1763 19.3922 29.3843 19.6733 28.4743 19.6573C27.6904 19.6435 26.4308 19.4591 25.3023 19.1929C24.982 19.1173 24.9905 19.107 25.0647 19.4809C25.089 19.603 25.0886 19.749 25.0637 19.8449C25.0143 20.0354 24.7711 20.2863 24.5876 20.3362C24.4949 20.3614 24.4594 20.3974 24.4661 20.4588C24.4772 20.5587 24.8247 22.6578 25.0245 23.8309C25.0987 24.267 25.3117 25.5313 25.4977 26.6403C25.6836 27.7493 25.9174 29.1359 26.0169 29.7216C26.2947 31.3553 26.554 32.8994 26.554 32.9202C26.554 32.9304 28.5381 32.9384 30.9632 32.9378C35.1972 32.9369 35.3799 32.9334 35.5611 32.8508C35.6755 32.7986 35.7936 32.6964 35.8608 32.5912C36.0607 32.2788 36.0543 32.1675 35.7826 31.2306C35.5602 30.4637 35.361 29.7496 35.1912 29.1099C35.1581 28.9853 35.0903 28.7304 35.0405 28.5435C34.5704 26.7782 34.0178 24.3878 33.6367 22.4715C33.4336 21.4504 33.1197 19.62 33.0713 19.175C33.053 19.0059 33.0196 18.8932 32.9886 18.8953C32.96 18.8972 32.7235 18.9585 32.463 19.0315ZM13.1219 20.6703C13.0946 20.8011 13.061 20.9898 13.0473 21.0895C13.0223 21.2707 12.7823 22.764 12.4355 24.8958C12.3341 25.5188 12.1806 26.467 12.0943 27.0028C11.8355 28.6095 11.4484 30.9968 11.2829 32.0068C11.1974 32.5285 11.1274 32.9669 11.1274 32.9811C11.1274 32.9952 11.9647 33.0013 12.9881 32.9945L14.8487 32.9822V27.489V21.9957L17.9949 21.9841L21.1412 21.9724V27.4773V32.9822L23.0112 32.9945C24.8609 33.0067 24.8809 33.0058 24.8611 32.9162C24.8415 32.8275 24.5549 31.0502 24.2982 29.4271C24.2273 28.9785 24.1386 28.4279 24.101 28.2036C24.0298 27.7777 23.6048 25.1596 23.3288 23.4457C23.2404 22.8975 23.0945 21.9951 23.0044 21.4406L22.8407 20.4324H18.0061H13.1716L13.1219 20.6703Z" fill="#8B8B8B"/>
</svg>
