<svg width="26" height="33" viewBox="0 0 26 33" fill="none" xmlns="http://www.w3.org/2000/svg">
<path fill-rule="evenodd" clip-rule="evenodd" d="M6.35809 0.188141L6.14759 0.376214V1.93366V3.4911L6.35809 3.67917L6.5686 3.86725H12.5326C19.0105 3.86725 18.762 3.88097 18.9289 3.51456C19.0358 3.28001 19.0358 0.587298 18.9289 0.352753C18.762 -0.0136618 19.0105 6.67139e-05 12.5326 6.67139e-05H6.5686L6.35809 0.188141ZM2.1905 2.03569C1.2471 2.28931 0.535151 2.95272 0.162935 3.92487L0.0245547 4.28619L0.00515444 17.2735C-0.00908968 26.8335 0.00528318 30.3628 0.0596171 30.6475C0.275535 31.7785 1.17169 32.6909 2.29968 32.9281C2.54228 32.9792 5.52091 33 12.5825 33C21.3061 33 22.5703 32.9879 22.9031 32.9012C23.8701 32.6493 24.5808 31.9949 24.9584 31.0088L25.0968 30.6475L25.1162 17.6602C25.1304 8.1002 25.116 4.57088 25.0617 4.28619C24.9499 3.70064 24.7007 3.23638 24.2635 2.79913C23.6033 2.13887 22.9977 1.93366 21.7098 1.93366H20.9396V2.77361C20.9396 3.45204 20.914 3.68955 20.8063 4.00898C20.5593 4.7422 20.124 5.22353 19.3957 5.56861L18.9737 5.76861L12.7224 5.78627C6.60701 5.80354 6.46167 5.80109 6.04208 5.67367C5.28134 5.44261 4.62824 4.82392 4.36546 4.08548C4.26318 3.79815 4.22238 3.4911 4.19711 2.81989L4.16373 1.93366L3.35097 1.93791C2.85688 1.94049 2.4019 1.97884 2.1905 2.03569ZM9.88651 9.76083C10.2534 9.9141 10.4828 10.3806 10.4037 10.8125C10.3658 11.0196 10.125 11.2893 8.7047 12.7155C6.93656 14.491 6.83472 14.5664 6.33102 14.4724C6.12516 14.434 5.94476 14.2877 5.26703 13.6101C4.58937 12.9324 4.44313 12.752 4.40472 12.5461C4.27001 11.824 4.95611 11.1852 5.62816 11.407C5.75481 11.4488 6.01984 11.6305 6.2172 11.8109L6.57594 12.1388L7.74751 10.9754C8.39184 10.3357 8.97708 9.78061 9.04797 9.74207C9.23025 9.64288 9.62547 9.65177 9.88651 9.76083ZM20.2742 11.7695C20.8324 12.1857 20.8324 12.9511 20.2742 13.3673C20.0949 13.501 20.0392 13.5032 16.3863 13.5206L12.6804 13.5383L12.4272 13.396C12.1605 13.2461 11.9161 12.8503 11.9161 12.5684C11.9161 12.2957 12.16 11.8929 12.4151 11.7441L12.6573 11.6028L16.3748 11.6184C20.0411 11.6336 20.0948 11.6357 20.2742 11.7695ZM9.92853 16.7334C10.1611 16.8505 10.3575 17.113 10.406 17.3716C10.4962 17.8522 10.4424 17.9259 8.76651 19.6151C7.8933 20.4953 7.09183 21.2612 6.98554 21.3169C6.68835 21.4729 6.27907 21.4401 5.98588 21.2369C5.84853 21.1417 5.46129 20.7806 5.12537 20.4344C4.46524 19.7541 4.32177 19.4797 4.40214 19.0512C4.45873 18.7495 4.81683 18.3889 5.11538 18.3329C5.5291 18.2553 5.78485 18.3522 6.19251 18.741L6.57233 19.1033L7.78482 17.8921C8.71475 16.9631 9.04823 16.6692 9.216 16.6309C9.46105 16.5749 9.67459 16.6055 9.92853 16.7334ZM20.2742 18.2148C20.8324 18.631 20.8324 19.3964 20.2742 19.8126C20.0949 19.9463 20.0392 19.9485 16.3863 19.9659L12.6804 19.9836L12.4272 19.8413C12.1605 19.6914 11.9161 19.2956 11.9161 19.0137C11.9161 18.741 12.16 18.3382 12.4151 18.1894L12.6573 18.0481L16.3748 18.0637C20.0411 18.0789 20.0948 18.081 20.2742 18.2148ZM9.92853 23.1787C10.1611 23.2958 10.3575 23.5583 10.406 23.8169C10.4962 24.2975 10.4424 24.3712 8.76651 26.0604C7.8933 26.9406 7.09183 27.7065 6.98554 27.7622C6.68835 27.9182 6.27907 27.8854 5.98588 27.6822C5.84853 27.587 5.46129 27.2259 5.12537 26.8797C4.46524 26.1994 4.32177 25.925 4.40214 25.4965C4.45873 25.1948 4.81683 24.8342 5.11538 24.7782C5.5291 24.7006 5.78485 24.7975 6.19251 25.1863L6.57233 25.5486L7.78482 24.3374C8.71475 23.4084 9.04823 23.1145 9.216 23.0762C9.46105 23.0202 9.67459 23.0508 9.92853 23.1787ZM20.2303 24.6287C20.5034 24.7822 20.7462 25.1599 20.7462 25.4313C20.7462 25.7476 20.4992 26.1599 20.2263 26.299C19.988 26.4206 19.83 26.4258 16.3264 26.4258C12.6917 26.4258 12.6737 26.4251 12.4244 26.285C12.1605 26.1367 11.9161 25.7395 11.9161 25.459C11.9161 25.1858 12.1599 24.7835 12.4151 24.6355C12.6561 24.4959 12.6758 24.4952 16.3224 24.4937C19.9374 24.4922 19.9907 24.4941 20.2303 24.6287Z" fill="#0099FF"/>
</svg>
