<svg width="36" height="26" viewBox="0 0 36 26" fill="none" xmlns="http://www.w3.org/2000/svg">
<path fill-rule="evenodd" clip-rule="evenodd" d="M20.5318 1.68572L17.3325 3.36792L12.639 3.36975L7.94553 3.37158V3.72259V4.07353L11.9205 4.09174L15.8955 4.10988L13.9497 5.12944C12.8796 5.6902 11.9293 6.20666 11.8381 6.27718C11.7036 6.38111 11.6722 6.47083 11.6722 6.7518V7.09824H5.8361H0V7.44982V7.80139H5.8361H11.6722V9.48893V11.1765H7.84006H4.00792V11.5281V11.8796H7.84006H11.6722L11.6732 15.4481C11.6739 17.4108 11.6976 19.052 11.726 19.0955C11.7544 19.139 12.2365 19.4153 12.7972 19.7097L13.8168 20.2449L10.7757 20.2459L7.73459 20.247V20.5986V20.9502H11.4505H15.1663L19.4801 23.2104C23.3078 25.216 23.8142 25.463 23.9735 25.4019C24.3032 25.2756 35.7531 19.2538 35.8779 19.141C35.9934 19.0367 36.0009 18.6415 35.9999 12.7301C35.9993 9.26519 35.9756 6.39383 35.9472 6.3494C35.8795 6.24343 23.9535 -0.00456793 23.8276 2.50624e-06C23.7746 0.00197131 22.2914 0.760523 20.5318 1.68572ZM29.3852 3.64714C32.3664 5.21023 34.8056 6.51042 34.8056 6.5365C34.8056 6.57103 32.0589 8.0529 31.707 8.20823C31.6194 8.2469 20.4558 2.57569 20.5111 2.5207C20.6484 2.38436 23.7436 0.781336 23.8479 0.792516C23.9121 0.799477 26.4039 2.08398 29.3852 3.64714ZM21.9232 7.54298L27.5686 10.3707L25.7269 11.3392C24.7139 11.8718 23.8467 12.2983 23.7999 12.287C23.6429 12.249 12.8675 6.57778 12.8675 6.53313C12.8675 6.49502 16.1486 4.73223 16.2426 4.71993C16.262 4.7174 18.8182 5.98777 21.9232 7.54298ZM35.2807 12.9435L35.2627 18.7185L30.5165 21.2085C27.906 22.578 25.4141 23.8839 24.9788 24.1105L24.1873 24.5225L24.2053 18.7203L24.2233 12.9181L26.0867 11.9433L27.95 10.9685L27.9686 13.1248C27.9849 15.0078 28.0018 15.2973 28.1026 15.4086C28.166 15.4786 28.2684 15.5356 28.33 15.5352C28.3917 15.5347 29.249 15.1313 30.2352 14.6387L32.0282 13.743L32.0467 11.2805L32.0651 8.81813L33.6288 7.99517C34.4887 7.54249 35.2163 7.17137 35.2455 7.17039C35.2748 7.16933 35.2906 9.76731 35.2807 12.9435ZM21.2368 17.7869L22.362 18.3504L22.2117 18.6483C22.1291 18.8121 22.0529 18.956 22.0424 18.968C22.0152 18.9992 19.7584 17.863 19.7584 17.818C19.7584 17.7514 20.0413 17.2235 20.077 17.2235C20.096 17.2235 20.6179 17.4771 21.2368 17.7869ZM20.0646 19.724C21.2884 20.3259 22.2897 20.8469 22.2897 20.8818C22.2897 20.9908 22.0555 21.4424 21.999 21.4424C21.9433 21.4424 17.5717 19.2792 17.5172 19.2246C17.4749 19.1823 17.7284 18.6298 17.79 18.6298C17.8173 18.6298 18.8408 19.1222 20.0646 19.724Z" fill="#0099FF"/>
</svg>
