<svg width="20" height="20" viewBox="0 0 20 20" fill="none" xmlns="http://www.w3.org/2000/svg">
<path fill-rule="evenodd" clip-rule="evenodd" d="M9.24668 0.0188202C7.76453 0.160766 6.66216 0.474242 5.41412 1.10866C3.93568 1.86013 2.60903 3.04845 1.6417 4.48764C1.23212 5.09701 0.731619 6.12572 0.491302 6.8521C0.297327 7.43841 0.143242 8.10565 0.0490705 8.76711C-0.0163568 9.22676 -0.0163568 10.7696 0.0490705 11.2293C0.212932 12.3804 0.517387 13.3888 0.993055 14.3558C1.53122 15.4499 2.05835 16.1849 2.92862 17.0546C3.78938 17.9148 4.53634 18.4519 5.5901 18.9685C6.32537 19.329 6.8001 19.5044 7.54549 19.6913C9.50143 20.1815 11.4631 20.0875 13.3741 19.4119C13.9573 19.2058 14.9684 18.6989 15.4844 18.3541C16.6668 17.5638 17.7254 16.4797 18.4917 15.2743C18.7733 14.8311 19.226 13.8961 19.4107 13.3761C20.3294 10.789 20.1695 8.01229 18.9621 5.58612C18.4748 4.607 17.9323 3.83963 17.1707 3.05201C16.3316 2.18431 15.4884 1.57084 14.3894 1.0285C13.2304 0.456538 12.1513 0.151347 10.8697 0.0330069C10.4712 -0.00376918 9.56545 -0.0117028 9.24668 0.0188202ZM11.3781 1.35831C13.8586 1.77489 15.9568 3.14373 17.3358 5.24505C17.999 6.25575 18.4516 7.44755 18.6584 8.72803C18.7552 9.32759 18.7552 10.6688 18.6584 11.2684C18.2369 13.8779 16.8077 16.0446 14.5849 17.4438C13.6331 18.0429 12.4862 18.4628 11.2607 18.6609C10.6587 18.7583 9.31809 18.758 8.71873 18.6604C6.77358 18.3439 5.17356 17.5341 3.80714 16.1745C2.45753 14.8317 1.6354 13.2092 1.32125 11.2684C1.22418 10.6685 1.22418 9.3279 1.32125 8.72803C1.73063 6.19888 3.06694 4.1048 5.16539 2.70414C6.36138 1.90581 7.80388 1.40298 9.28579 1.26788C9.70886 1.2293 10.922 1.28175 11.3781 1.35831ZM9.73553 5.0487C9.59067 5.11573 9.4608 5.25361 9.40573 5.39884C9.37824 5.47137 9.36401 6.16695 9.36401 7.43985V9.37081L7.37232 9.3816C5.43046 9.39215 5.37798 9.39446 5.2727 9.47301C5.0675 9.62617 5.00348 9.75104 5.00348 9.99819C5.00348 10.2453 5.0675 10.3702 5.2727 10.5234C5.37798 10.6019 5.43046 10.6042 7.37131 10.6148L9.36193 10.6256L9.37276 12.6149C9.38328 14.5544 9.38559 14.6069 9.4642 14.7121C9.61746 14.9172 9.74241 14.9811 9.98973 14.9811C10.237 14.9811 10.362 14.9172 10.5153 14.7121C10.5939 14.6069 10.5962 14.5544 10.6067 12.6149L10.6175 10.6256L12.6082 10.6148C14.549 10.6042 14.6015 10.6019 14.7068 10.5234C14.912 10.3702 14.976 10.2453 14.976 9.99819C14.976 9.75104 14.912 9.62617 14.7068 9.47301C14.6015 9.39446 14.549 9.39215 12.6082 9.38164L10.6175 9.37081L10.6067 7.3815C10.5962 5.44195 10.5939 5.3895 10.5153 5.28429C10.4709 5.22496 10.3886 5.14207 10.3324 5.10014C10.2028 5.00345 9.89137 4.9766 9.73553 5.0487Z" fill="#0099FF"/>
</svg>
