<svg width="30" height="30" viewBox="0 0 30 30" fill="none" xmlns="http://www.w3.org/2000/svg">
<circle cx="14.9999" cy="14.9999" r="14.9999" fill="#F89C47"/>
<path fill-rule="evenodd" clip-rule="evenodd" d="M14.996 0C23.2766 0 29.992 6.71539 29.992 14.996C29.992 23.2766 23.2766 29.992 14.996 29.992C6.71539 29.992 0 23.2766 0 14.996C0 6.71539 6.71539 0 14.996 0ZM13.3894 16.2864V8.56817C13.3894 7.68334 14.1112 6.9616 14.996 6.9616C15.8808 6.9616 16.6026 7.69005 16.6026 8.56817V16.2864C16.6026 17.1645 15.8808 17.893 14.996 17.893C14.1112 17.893 13.3894 17.1712 13.3894 16.2864ZM14.989 19.6161C15.9946 19.6161 16.8101 20.4316 16.8101 21.437C16.8101 22.4425 15.9946 23.258 14.989 23.258C13.9837 23.258 13.1682 22.4425 13.1682 21.437C13.1682 20.4316 13.9837 19.6161 14.989 19.6161Z" fill="#FDDDBF"/>
</svg>
