<svg width="18" height="19" viewBox="0 0 18 19" fill="none" xmlns="http://www.w3.org/2000/svg">
<path d="M8.4262 1.5332H5.25603C2.64885 1.5332 1.01416 3.37901 1.01416 5.99213V13.0413C1.01416 15.6544 2.64121 17.5002 5.25603 17.5002H12.7376C15.3533 17.5002 16.9803 15.6544 16.9803 13.0413V9.62608" stroke="white" stroke-width="1.2" stroke-linecap="round" stroke-linejoin="round"/>
<path fill-rule="evenodd" clip-rule="evenodd" d="M6.16741 8.42749L12.5035 2.09139C13.2929 1.30287 14.5723 1.30287 15.3617 2.09139L16.3935 3.12324C17.1829 3.9126 17.1829 5.19288 16.3935 5.9814L10.0269 12.348C9.68182 12.6931 9.21379 12.8873 8.72542 12.8873H5.54932L5.62902 9.68233C5.64089 9.21092 5.83335 8.76155 6.16741 8.42749Z" stroke="white" stroke-width="1.2" stroke-linecap="round" stroke-linejoin="round"/>
<path d="M11.5405 3.06982L15.4119 6.94118" stroke="white" stroke-width="1.2" stroke-linecap="round" stroke-linejoin="round"/>
</svg>
