<svg width="18" height="19" viewBox="0 0 18 19" fill="none" xmlns="http://www.w3.org/2000/svg">
<path d="M8.41216 1.53271H5.24194C2.63471 1.53271 1 3.37855 1 5.99171V13.041C1 15.6541 2.62708 17.5 5.24194 17.5H12.7236C15.3393 17.5 16.9664 15.6541 16.9664 13.041V9.62572" stroke="#0099FF" stroke-width="1.5" stroke-linecap="round" stroke-linejoin="round"/>
<path fill-rule="evenodd" clip-rule="evenodd" d="M6.15326 8.4276L12.4895 2.0914C13.2788 1.30287 14.5583 1.30287 15.3477 2.0914L16.3795 3.12326C17.1689 3.91264 17.1689 5.19294 16.3795 5.98147L10.0128 12.3482C9.66772 12.6933 9.19969 12.8874 8.71131 12.8874H5.53516L5.61486 9.68246C5.62673 9.21104 5.8192 8.76166 6.15326 8.4276Z" stroke="#0099FF" stroke-width="1.5" stroke-linecap="round" stroke-linejoin="round"/>
<path d="M11.5264 3.07031L15.3978 6.94173" stroke="#0099FF" stroke-width="1.5" stroke-linecap="round" stroke-linejoin="round"/>
</svg>
