<svg width="17" height="16" viewBox="0 0 17 16" fill="none" xmlns="http://www.w3.org/2000/svg">
<g clip-path="url(#clip0_23_56)">
<path d="M9.68493 16C9.54068 16 9.40032 15.9532 9.28492 15.8667L6.61826 13.8667C6.53546 13.8046 6.46826 13.724 6.42197 13.6315C6.37569 13.5389 6.35159 13.4368 6.35159 13.3333V9.58667L1.67426 4.32467C1.34207 3.94992 1.12518 3.48721 1.04964 2.99216C0.974111 2.4971 1.04315 1.99077 1.24847 1.53401C1.45379 1.07725 1.78665 0.689506 2.20704 0.417377C2.62744 0.145249 3.11747 0.000316279 3.61826 0L13.0849 0C13.5857 0.000587367 14.0756 0.14576 14.4958 0.418071C14.916 0.690383 15.2487 1.07825 15.4538 1.53506C15.6589 1.99187 15.7277 2.49818 15.652 2.99316C15.5763 3.48815 15.3592 3.95073 15.0269 4.32533L10.3516 9.58667V15.3333C10.3516 15.5101 10.2814 15.6797 10.1563 15.8047C10.0313 15.9298 9.86174 16 9.68493 16Z" fill="#1C1C1C"/>
</g>
<defs>
<clipPath id="clip0_23_56">
<rect width="16" height="16" fill="white" transform="translate(0.351562)"/>
</clipPath>
</defs>
</svg>
