<svg width="31" height="31" viewBox="0 0 31 31" fill="none" xmlns="http://www.w3.org/2000/svg">
<rect width="31" height="31" rx="15.5" fill="#FFDFE7"/>
<path d="M21.35 10.5H19.335C19.1841 9.79463 18.785 9.16084 18.2048 8.70545C17.6246 8.25006 16.8989 8.00091 16.15 8H14.85C14.1011 8.00091 13.3754 8.25006 12.7952 8.70545C12.215 9.16084 11.8159 9.79463 11.665 10.5H9.65C9.47761 10.5 9.31228 10.5658 9.19038 10.6831C9.06848 10.8003 9 10.9592 9 11.125C9 11.2908 9.06848 11.4497 9.19038 11.5669C9.31228 11.6842 9.47761 11.75 9.65 11.75H10.3V19.875C10.301 20.7035 10.6438 21.4978 11.253 22.0836C11.8623 22.6694 12.6884 22.999 13.55 23H17.45C18.3116 22.999 19.1377 22.6694 19.747 22.0836C20.3562 21.4978 20.699 20.7035 20.7 19.875V11.75H21.35C21.5224 11.75 21.6877 11.6842 21.8096 11.5669C21.9315 11.4497 22 11.2908 22 11.125C22 10.9592 21.9315 10.8003 21.8096 10.6831C21.6877 10.5658 21.5224 10.5 21.35 10.5ZM14.85 9.25H16.15C16.5532 9.25047 16.9463 9.37086 17.2755 9.59465C17.6048 9.81844 17.8539 10.1347 17.9888 10.5H13.0111C13.1461 10.1347 13.3952 9.81844 13.7245 9.59465C14.0537 9.37086 14.4468 9.25047 14.85 9.25ZM19.4 19.875C19.4 20.3723 19.1946 20.8492 18.8289 21.2008C18.4632 21.5525 17.9672 21.75 17.45 21.75H13.55C13.0328 21.75 12.5368 21.5525 12.1711 21.2008C11.8054 20.8492 11.6 20.3723 11.6 19.875V11.75H19.4V19.875Z" fill="#EE4C4C"/>
<path d="M14.5 19C14.6326 19 14.7598 18.9342 14.8536 18.8169C14.9473 18.6997 15 18.5408 15 18.375V14.625C15 14.4592 14.9473 14.3003 14.8536 14.1831C14.7598 14.0658 14.6326 14 14.5 14C14.3674 14 14.2402 14.0658 14.1464 14.1831C14.0527 14.3003 14 14.4592 14 14.625V18.375C14 18.5408 14.0527 18.6997 14.1464 18.8169C14.2402 18.9342 14.3674 19 14.5 19Z" fill="#EE4C4C"/>
<path d="M16.5 19C16.6326 19 16.7598 18.9342 16.8536 18.8169C16.9473 18.6997 17 18.5408 17 18.375V14.625C17 14.4592 16.9473 14.3003 16.8536 14.1831C16.7598 14.0658 16.6326 14 16.5 14C16.3674 14 16.2402 14.0658 16.1464 14.1831C16.0527 14.3003 16 14.4592 16 14.625V18.375C16 18.5408 16.0527 18.6997 16.1464 18.8169C16.2402 18.9342 16.3674 19 16.5 19Z" fill="#EE4C4C"/>
</svg>
