<svg width="61" height="47" viewBox="0 0 61 47" fill="none" xmlns="http://www.w3.org/2000/svg">
<path fill-rule="evenodd" clip-rule="evenodd" d="M4.8189 0.069074C2.95464 0.395249 1.39797 1.80493 0.91187 3.60701C0.680418 4.46502 0.680418 42.535 0.91187 43.393C1.4119 45.2467 2.95898 46.6124 4.92409 46.935C5.80539 47.0796 6.30928 47.0081 8.2491 46.4623C14.0511 44.83 19.6529 43.8511 25.4674 43.4534C27.656 43.3038 33.8206 43.3038 36.0092 43.4534C41.8795 43.8549 47.6842 44.8752 53.2861 46.4901C55.8062 47.2167 57.0747 47.1346 58.5896 46.147C59.5794 45.5018 60.2488 44.5685 60.5651 43.393C60.7962 42.5342 60.7959 4.46386 60.5648 3.60701C60.0647 1.75331 58.5177 0.387594 56.5526 0.0650142C55.6713 -0.0796305 55.1674 -0.00806203 53.2276 0.53769C47.4074 2.17506 41.8419 3.14767 36.0092 3.54658C33.8206 3.69621 27.656 3.69621 25.4674 3.54658C19.645 3.14837 14.1435 2.18666 8.2443 0.535834C6.46507 0.0378713 5.63953 -0.0746427 4.8189 0.069074ZM7.53834 5.47904C22.6654 9.70273 38.5991 9.71166 53.8469 5.50491C54.7996 5.24206 55.6022 5.04998 55.6305 5.07793C55.6587 5.106 55.7157 10.9196 55.7569 17.9972L55.8319 30.8656L48.8781 24.0113C41.1771 16.4204 41.5176 16.7001 39.8232 16.5732C38.8288 16.4987 37.8669 16.7317 37.0634 17.2418C36.7735 17.4257 33.823 20.2654 30.5065 23.552L24.4768 29.5276L22.6564 27.7375C20.3581 25.4776 20.0253 25.2956 18.2053 25.3029C16.253 25.3107 16.5659 25.0795 10.8156 30.7646L5.82705 35.6964L5.74963 33.4074C5.707 32.1484 5.67221 25.2229 5.67221 18.0172C5.67221 5.58749 5.68275 4.92018 5.87719 4.9943C5.98987 5.03733 6.7374 5.2554 7.53834 5.47904ZM12.2316 11.2466C11.2508 11.4576 10.4854 11.8774 9.73854 12.6138C7.77448 14.5505 7.77448 17.5996 9.73854 19.5403C11.6779 21.4565 14.6507 21.51 16.6216 19.6641C17.7045 18.6499 18.2053 17.5154 18.2053 16.0764C18.2053 14.6469 17.7038 13.5021 16.642 12.5077C15.8813 11.7951 15.2558 11.4693 14.2397 11.256C13.3225 11.0635 13.088 11.0624 12.2316 11.2466Z" fill="#E1E5EC"/>
</svg>
