<svg width="35" height="35" viewBox="0 0 35 35" fill="none" xmlns="http://www.w3.org/2000/svg">
<path fill-rule="evenodd" clip-rule="evenodd" d="M2.9165 17.5003C2.9165 25.543 9.45859 32.0836 17.4998 32.0836C25.5411 32.0836 32.0832 25.543 32.0832 17.5003C32.0832 9.45903 25.5411 2.91695 17.4998 2.91695C12.9396 2.91695 8.72505 4.99216 5.93963 8.60737C5.58234 9.07258 5.66838 9.73903 6.13359 10.0949C6.59588 10.4536 7.26088 10.3647 7.61963 9.90237C10.0011 6.8107 13.6017 5.03737 17.4998 5.03737C24.3715 5.03737 29.9628 10.6272 29.9628 17.5003C29.9628 24.372 24.3715 29.9632 17.4998 29.9632C10.6282 29.9632 5.03692 24.372 5.03692 17.5003C5.03692 16.8615 5.08505 16.2272 5.17984 15.6059C5.26734 15.0284 4.87067 14.4874 4.29171 14.3984C3.70984 14.3022 3.17171 14.7061 3.08421 15.2851C2.97338 16.0113 2.9165 16.7565 2.9165 17.5003ZM17.4998 24.1297C16.8961 24.1297 16.4061 23.6397 16.4061 23.036V16.5901C16.4061 15.9864 16.8961 15.4964 17.4998 15.4964C18.1036 15.4964 18.5936 15.9864 18.5936 16.5901V23.036C18.5936 23.6397 18.1036 24.1297 17.4998 24.1297ZM17.5147 13.0583H17.5001C16.8964 13.0583 16.4137 12.5683 16.4137 11.9646C16.4137 11.3608 16.911 10.8708 17.5147 10.8708C18.1185 10.8708 18.6085 11.3608 18.6085 11.9646C18.6085 12.5683 18.1185 13.0583 17.5147 13.0583Z" fill="#3AB0FF"/>
</svg>
