<svg width="25" height="27" viewBox="0 0 25 27" fill="none" xmlns="http://www.w3.org/2000/svg">
<path fill-rule="evenodd" clip-rule="evenodd" d="M3.34925 1.05163C3.21489 1.07689 2.92266 1.18545 2.69985 1.29285C1.96574 1.64674 1.4315 2.30825 1.2237 3.12074C1.12808 3.49471 1.12613 3.66616 1.12613 11.7684C1.12613 19.8706 1.12808 20.0421 1.2237 20.416C1.46546 21.3612 2.11564 22.0572 3.08052 22.4036L3.39811 22.5175L6.98931 22.5332L10.5805 22.5488L10.8364 22.9285C11.5736 24.022 12.7822 24.9829 14.0642 25.4945C17.0518 26.6869 20.4921 25.7174 22.4295 23.137C24.3314 20.604 24.3573 17.174 22.4938 14.6195C21.5325 13.3016 19.9762 12.2561 18.4347 11.8924L18.1782 11.832L18.176 9.43045C18.1744 7.66788 18.1581 6.99347 18.1149 6.89545C18.0334 6.71047 12.6761 1.09736 12.5271 1.04068C12.3672 0.979899 3.67583 0.990257 3.34925 1.05163ZM11.8289 3.92639C11.8576 5.9422 11.8631 5.98813 12.1275 6.45425C12.4019 6.93806 12.8303 7.2854 13.4183 7.50107C13.6898 7.60065 13.8128 7.60842 15.4298 7.62811L17.1521 7.64912V9.66766V11.6862L16.5914 11.6895C15.0369 11.6988 13.3906 12.2912 12.2121 13.2654L11.9869 13.4515L8.55575 13.465L5.12457 13.4785L4.98205 13.6381C4.7012 13.9524 4.84143 14.3861 5.25478 14.4815C5.36227 14.5063 6.68701 14.5272 8.19859 14.5278C9.71021 14.5284 10.947 14.5392 10.947 14.5517C10.947 14.5642 10.8222 14.7676 10.6697 15.0036C10.5172 15.2397 10.3187 15.5923 10.2285 15.7871L10.0645 16.1413H7.59483H5.12511L4.98229 16.2842C4.78304 16.4834 4.78294 16.7605 4.982 16.9834L5.12457 17.143L7.42997 17.1566L9.73532 17.1702L9.70923 17.2787C9.59813 17.7406 9.56055 18.128 9.56134 18.8042C9.56241 19.7852 9.65392 20.3203 10.0022 21.3826C10.0292 21.4649 9.86984 21.4684 6.73875 21.4559L3.44697 21.4426L3.1779 21.3105C2.64577 21.0491 2.29832 20.5725 2.19933 19.9681C2.1367 19.5857 2.1367 3.95106 2.19933 3.56869C2.3273 2.78747 2.89119 2.19836 3.62902 2.07504C3.77076 2.05135 5.66765 2.03498 7.84435 2.03864L11.802 2.04529L11.8289 3.92639ZM14.8591 4.92802L16.3883 6.54039L15.1322 6.55343C13.943 6.5658 13.8632 6.56091 13.6341 6.46241C13.501 6.40515 13.3052 6.26394 13.1989 6.14863C12.8836 5.80656 12.8525 5.62495 12.8525 4.12574V2.82822L13.0912 3.07193C13.2225 3.20595 14.018 4.04121 14.8591 4.92802ZM4.98982 11.0148C4.7204 11.2842 4.81021 11.7098 5.16493 11.8447C5.23485 11.8712 6.42542 11.8905 7.99655 11.8905C10.9808 11.8905 10.9141 11.897 11.0726 11.5906C11.1802 11.3826 11.1289 11.1472 10.9415 10.9896L10.7929 10.8645H7.9665H5.14016L4.98982 11.0148ZM17.4498 12.7743C18.8868 12.9603 20.1389 13.5915 21.1355 14.6324C23.3689 16.9651 23.3866 20.6421 21.1758 23.03C20.9024 23.3253 20.3136 23.8069 19.9103 24.065C18.4252 25.0156 16.323 25.2237 14.6011 24.5907C12.7809 23.9215 11.3731 22.4065 10.8316 20.5341C10.6421 19.8787 10.5888 19.3909 10.6192 18.5908C10.678 17.0423 11.2243 15.747 12.2894 14.6311C13.6345 13.2218 15.5583 12.5296 17.4498 12.7743ZM16.5903 14.8641C16.4583 14.9064 16.3605 14.9747 16.2727 15.0861C16.21 15.1656 16.1958 15.6018 16.175 18.0876L16.1505 20.9962L15.1026 19.8758C14.5262 19.2595 13.9985 18.717 13.9299 18.6702C13.6084 18.4505 13.1437 18.6846 13.1474 19.0645C13.1483 19.1632 13.1758 19.2904 13.2084 19.3472C13.2411 19.404 13.977 20.211 14.8439 21.1406C16.2178 22.6141 16.4425 22.8351 16.5958 22.8638C16.7085 22.885 16.8218 22.8726 16.9113 22.8293C17.0722 22.7516 20.1054 19.5104 20.215 19.2991C20.4351 18.875 19.937 18.4225 19.5072 18.6561C19.4346 18.6955 18.9025 19.2407 18.3248 19.8676L17.2743 21.0074L17.2499 18.098C17.2294 15.6651 17.2138 15.171 17.1544 15.0816C17.0411 14.9108 16.7706 14.8065 16.5903 14.8641Z" fill="#00A591" stroke="#00A591" stroke-width="0.5"/>
</svg>
