<svg width="36" height="33" viewBox="0 0 36 33" fill="none" xmlns="http://www.w3.org/2000/svg">
<path fill-rule="evenodd" clip-rule="evenodd" d="M7.2096 3.81111C3.58273 5.90373 0.615219 7.63523 0.615219 7.65877C0.615219 7.68239 1.94855 8.46886 3.57827 9.40661L6.54132 11.1115L13.0949 7.34373C16.6994 5.27143 19.6932 3.53494 19.7479 3.4848C19.8264 3.41273 19.2285 3.03789 16.891 1.69372C15.2651 0.758734 13.9053 -0.00343847 13.8694 1.16673e-05C13.8334 0.0034618 10.8365 1.71848 7.2096 3.81111ZM14.2845 7.87828C10.6575 9.97212 7.6987 11.7106 7.70939 11.7416C7.72692 11.7927 13.828 15.3277 13.8987 15.3277C13.9581 15.3277 27.033 7.79348 27.1206 7.70876C27.1877 7.64405 26.4394 7.17997 24.1376 5.85895C22.4477 4.88908 21.0233 4.09011 20.9721 4.08344C20.9209 4.07677 17.9115 5.78443 14.2845 7.87828ZM0 16.2628V23.9626L5.09478 26.8884C7.89695 28.4975 10.9077 30.227 11.7853 30.7318L13.381 31.6495V23.9592V16.269L6.86354 12.5273C3.27889 10.4693 0.268236 8.73552 0.17303 8.67434L0 8.56309V16.2628ZM21.0905 12.4337L14.4577 16.2741V23.9631V31.6522L16.1687 30.6673C17.1099 30.1256 18.745 29.1823 19.8024 28.5711L21.7249 27.4599L21.7634 21.6046C21.8011 15.8542 21.8048 15.743 21.9638 15.4004C22.2005 14.8903 22.5617 14.5189 23.0567 14.2765C23.4709 14.0737 23.5584 14.0613 24.7367 14.0369L25.9797 14.0113L26.0788 13.7728C26.3021 13.2354 26.8662 12.7946 27.477 12.6804L27.7618 12.6271V10.604C27.7618 9.49118 27.7531 8.58356 27.7425 8.58701C27.732 8.59054 24.7386 10.3215 21.0905 12.4337ZM27.2542 13.9783C27.0511 14.1807 26.9927 14.3022 26.9927 14.5226C26.9927 14.743 27.0511 14.8645 27.2542 15.067L27.5157 15.3277H29.2885C30.3994 15.3277 31.1297 15.2966 31.2445 15.2445C31.4732 15.1406 31.6838 14.7945 31.6838 14.5226C31.6838 14.2507 31.4732 13.9047 31.2445 13.8008C31.1297 13.7486 30.3994 13.7176 29.2885 13.7176H27.5157L27.2542 13.9783ZM23.5667 15.2055C23.2574 15.3398 22.934 15.7315 22.8785 16.0391C22.8541 16.1749 22.8441 19.8803 22.8562 24.2732C22.8783 32.2034 22.8796 32.262 23.037 32.4721C23.1242 32.5886 23.2911 32.755 23.4079 32.8419C23.618 32.9982 23.6832 33 29.3383 33C34.9934 33 35.0586 32.9982 35.2686 32.8419C35.3854 32.755 35.5523 32.5886 35.6395 32.4721C35.797 32.2618 35.7982 32.2059 35.8184 24.172C35.8409 15.159 35.876 15.7711 35.3129 15.3425C35.0498 15.1422 35.0063 15.1352 33.8669 15.1114L32.6921 15.087L32.541 15.3798C32.3431 15.7634 32.0338 16.0488 31.6069 16.2415C31.2895 16.3847 31.1056 16.3978 29.3856 16.3993C28.166 16.4004 27.4049 16.3695 27.2086 16.3109C26.8331 16.1987 26.2851 15.7265 26.1144 15.368L25.9858 15.0976L24.8935 15.1006C24.1604 15.1026 23.7242 15.1371 23.5667 15.2055ZM27.573 18.3526C27.7186 18.4978 27.7618 18.6213 27.7618 18.8928C27.7618 19.1643 27.7186 19.2878 27.573 19.4329C27.3325 19.6727 27.1133 19.6716 26.8704 19.4295C26.6924 19.2521 26.6241 19.2378 25.9511 19.2378H25.224V19.9662C25.224 20.5625 25.2449 20.6945 25.3393 20.6945C25.5321 20.6945 25.7623 20.9867 25.7623 21.2312C25.7623 21.61 25.5319 21.7679 24.979 21.7679C24.5965 21.7679 24.4685 21.7352 24.3253 21.6012C24.1514 21.4383 24.1474 21.4013 24.1474 19.9769C24.1474 18.0243 24.0092 18.1644 25.933 18.1644C27.3713 18.1644 27.3859 18.1661 27.573 18.3526ZM29.2229 18.8545C29.5505 19.1811 29.4561 19.3447 28.2396 20.5575C26.8519 21.941 26.9048 21.9268 26.1017 21.1354C25.4592 20.5022 25.3679 20.2884 25.6097 19.982C25.8528 19.674 26.1505 19.704 26.5571 20.0776L26.887 20.3809L27.7268 19.541C28.4533 18.8145 28.6005 18.7011 28.8179 18.7011C28.9666 18.7011 29.1319 18.7637 29.2229 18.8545ZM34.3404 19.656C34.4442 19.7595 34.5292 19.9163 34.5292 20.0045C34.5292 20.0927 34.4442 20.2495 34.3404 20.353L34.1517 20.5412H32.2882C30.4809 20.5412 30.4194 20.5362 30.2468 20.3745C30.0234 20.1652 30.0192 19.8755 30.236 19.6452C30.402 19.4692 30.4178 19.4678 32.2775 19.4678H34.1517L34.3404 19.656ZM27.5838 23.238C27.7577 23.4009 27.7618 23.4378 27.7618 24.8623C27.7618 26.8159 27.9017 26.6748 25.9653 26.6748C24.0058 26.6748 24.1474 26.8142 24.1474 24.8838C24.1474 22.9301 24.0075 23.0713 25.9438 23.0713C27.339 23.0713 27.4139 23.0789 27.5838 23.238ZM25.224 24.873V25.6014H25.9546H26.6851V24.873V24.1447H25.9546H25.224V24.873ZM34.3404 24.5629C34.4442 24.6664 34.5292 24.8232 34.5292 24.9114C34.5292 24.9995 34.4442 25.1563 34.3404 25.2598L34.1517 25.448H32.2882C30.4809 25.448 30.4194 25.4431 30.2468 25.2814C30.0234 25.0721 30.0192 24.7823 30.236 24.5521C30.402 24.376 30.4178 24.3747 32.2775 24.3747H34.1517L34.3404 24.5629ZM27.573 28.1664C27.7284 28.3212 27.7618 28.4303 27.7618 28.7832C27.7618 29.1361 27.7284 29.2451 27.573 29.4C27.4692 29.5035 27.3181 29.5882 27.2373 29.5882C27.0509 29.5882 26.6851 29.3052 26.6851 29.1609C26.6851 29.0738 26.5362 29.0515 25.9546 29.0515H25.224V29.7799C25.224 30.3762 25.2449 30.5082 25.3393 30.5082C25.5321 30.5082 25.7623 30.8004 25.7623 31.0449C25.7623 31.4237 25.5319 31.5816 24.979 31.5816C24.5965 31.5816 24.4685 31.5489 24.3253 31.4149C24.1515 31.2521 24.1474 31.2146 24.1474 29.8013C24.1474 27.8539 24.0242 27.9781 25.9546 27.9781C27.3699 27.9781 27.3861 27.9801 27.573 28.1664ZM29.2199 28.7593C29.5323 29.0935 29.4517 29.233 28.2457 30.445C26.8507 31.847 26.8955 31.8353 26.0744 31.0111C25.6043 30.5393 25.506 30.3979 25.506 30.1941C25.506 29.9082 25.7529 29.6649 26.043 29.6649C26.1542 29.6649 26.3606 29.7869 26.5536 29.9668L26.8774 30.2687L27.7307 29.4301C28.4486 28.7247 28.6222 28.5915 28.8236 28.5915C28.971 28.5915 29.1235 28.656 29.2199 28.7593ZM34.3404 29.4697C34.4442 29.5732 34.5292 29.73 34.5292 29.8182C34.5292 29.9064 34.4442 30.0632 34.3404 30.1667L34.1517 30.3549H32.2882C30.4809 30.3549 30.4194 30.3499 30.2468 30.1882C30.0234 29.9789 30.0192 29.6892 30.236 29.4589C30.402 29.2829 30.4178 29.2815 32.2775 29.2815H34.1517L34.3404 29.4697Z" fill="#0099FF"/>
</svg>
