<svg width="31" height="30" viewBox="0 0 31 30" fill="none" xmlns="http://www.w3.org/2000/svg">
<path fill-rule="evenodd" clip-rule="evenodd" d="M19.2595 0.0634322C19.0983 0.105526 18.8213 0.213985 18.6439 0.304505C18.4666 0.394966 15.3363 2.2067 11.6878 4.33063L5.05409 8.19224H3.68123C2.17934 8.19224 1.93446 8.22982 1.37838 8.54547C0.740466 8.90761 0.195297 9.6796 0.0592244 10.4134C-0.0188663 10.8345 -0.020156 27.2613 0.057876 27.7376C0.237332 28.8336 1.16838 29.7647 2.26441 29.9441C2.47786 29.9791 7.09395 30.0004 14.3642 30C27.2718 29.9992 26.5887 30.0181 27.2397 29.6456C27.8458 29.2988 28.2889 28.7529 28.5311 28.0546C28.6234 27.7884 28.6388 27.5511 28.6392 26.3857C28.6398 25.0979 28.6334 25.0187 28.5169 24.8614C28.2847 24.5481 28.3112 24.5509 25.4669 24.5499C23.3689 24.5492 22.7163 24.5307 22.3118 24.4601C20.4075 24.1281 18.9056 22.9299 18.1611 21.1487C17.8417 20.3843 17.7938 20.1134 17.7939 19.0675C17.7939 18.2679 17.8134 18.062 17.9262 17.6728C18.483 15.7514 19.8854 14.3639 21.8391 13.8015C22.2181 13.6924 22.4766 13.6807 25.2206 13.6493C28.1179 13.616 28.1958 13.6122 28.3571 13.4923C28.6462 13.2776 28.6825 13.0503 28.6508 11.6512C28.6141 10.0233 28.5111 9.68077 27.8621 9.02756C27.4675 8.63048 27.0868 8.41338 26.5286 8.26717L26.1246 8.16135L24.1452 4.70314C22.1528 1.22219 21.8805 0.804707 21.3754 0.457227C20.8088 0.0673602 19.8952 -0.102657 19.2595 0.0634322ZM20.431 1.4829C20.6679 1.59535 21.0668 1.98339 21.0046 2.04097C20.9799 2.06383 18.5969 3.45727 15.709 5.13745L10.4584 8.19224H9.14576C8.34914 8.19224 7.85504 8.17114 7.88887 8.13854C8.01357 8.01824 19.2642 1.50125 19.4873 1.42011C19.7635 1.31962 20.1397 1.34466 20.431 1.4829ZM23.7985 6.8504C24.1879 7.53111 24.5066 8.11152 24.5066 8.14018C24.5066 8.16985 23.2404 8.19224 21.5655 8.19224C19.9479 8.19224 18.6403 8.17636 18.6597 8.15689C18.722 8.09457 23.002 5.61267 23.0471 5.61267C23.071 5.61267 23.4091 6.16963 23.7985 6.8504ZM22.4667 15.057C21.0422 15.3001 19.7599 16.4335 19.3076 17.8493C18.6064 20.0445 19.8843 22.3931 22.1298 23.0363C22.5934 23.1691 22.6494 23.1713 25.5032 23.1713H28.4052L28.7863 22.9888C29.413 22.6887 29.8241 22.1871 29.9579 21.5591C30.0059 21.3338 30.0208 20.5303 30.0074 18.8916L29.9882 16.5465L29.8316 16.2126C29.632 15.7866 29.2239 15.3785 28.7978 15.1788L28.4639 15.0222L25.6205 15.0132C24.0566 15.0081 22.6374 15.0279 22.4667 15.057ZM23.7317 17.8394C24.3577 18.101 24.7068 18.8762 24.4807 19.5031C24.3405 19.8919 24.1337 20.1251 23.772 20.302C23.0923 20.6346 22.3327 20.3634 21.9739 19.66C21.7408 19.2031 21.8676 18.4541 22.2353 18.116C22.6237 17.7589 23.2582 17.6416 23.7317 17.8394Z" fill="#0099FF"/>
</svg>
