<svg width="17" height="18" viewBox="0 0 17 18" fill="none" xmlns="http://www.w3.org/2000/svg">
<path fill-rule="evenodd" clip-rule="evenodd" d="M7.73755 0.520116C6.09484 0.680947 4.57659 1.28613 3.24541 2.31068C2.59716 2.8096 1.75531 3.74725 1.26882 4.51213C1.05871 4.84247 0.649715 5.67955 0.5032 6.07903C0.339382 6.52574 0.164783 7.20837 0.0788642 7.73806C-0.0262881 8.38637 -0.0262881 9.61728 0.0788642 10.2656C0.227542 11.1821 0.462737 11.923 0.86531 12.7432C1.30515 13.6394 1.7625 14.2746 2.49487 15.0066C3.22728 15.7385 3.86285 16.1956 4.75947 16.6352C5.58019 17.0375 6.32152 17.2726 7.23854 17.4212C7.88722 17.5263 9.11883 17.5263 9.76752 17.4212C10.6845 17.2726 11.4259 17.0375 12.2466 16.6352C13.1432 16.1956 13.7788 15.7385 14.5112 15.0066C15.2436 14.2746 15.7009 13.6394 16.1407 12.7432C16.4329 12.148 16.5798 11.7579 16.7372 11.1597C16.9468 10.3631 17 9.92637 17 9.00183C17 8.07728 16.9468 7.64058 16.7372 6.84394C16.5798 6.24575 16.4329 5.85564 16.1407 5.26041C15.7009 4.3643 15.2436 3.72909 14.5112 2.9971C13.7788 2.26515 13.1432 1.80806 12.2466 1.36847C11.4267 0.966492 10.6707 0.726675 9.78416 0.587295C9.29503 0.510405 8.20285 0.474554 7.73755 0.520116ZM9.29463 1.85389C10.9172 2.03251 12.4026 2.75146 13.5798 3.92797C14.9609 5.30833 15.6907 7.06231 15.6907 9.00183C15.6907 10.9413 14.9609 12.6953 13.5798 14.0757C12.1986 15.4561 10.4437 16.1853 8.50303 16.1853C6.5624 16.1853 4.80742 15.4561 3.42627 14.0757C2.04511 12.6953 1.3154 10.9413 1.3154 9.00183C1.3154 7.06231 2.04511 5.30833 3.42627 3.92797C4.5873 2.76759 6.08819 2.03471 7.67113 1.85522C8.03736 1.81372 8.92304 1.81298 9.29463 1.85389ZM8.35329 5.00789C8.13104 5.0631 7.93231 5.25313 7.87278 5.46737C7.85112 5.54539 7.83781 6.10012 7.83771 6.93158L7.83751 8.27017H6.54137C5.70388 8.27017 5.18284 8.28348 5.06891 8.30775C4.85185 8.35405 4.63858 8.54863 4.57596 8.75755C4.48638 9.0564 4.63509 9.39326 4.91674 9.52952C5.05919 9.59846 5.10258 9.60045 6.4494 9.60045H7.83544L7.84479 11.0056C7.85378 12.3564 7.85684 12.4158 7.92366 12.5437C7.96189 12.6169 8.05676 12.7216 8.1345 12.7765C8.25818 12.8638 8.30417 12.8763 8.50303 12.8763C8.70189 12.8763 8.74787 12.8638 8.87156 12.7765C8.94929 12.7216 9.04416 12.6169 9.0824 12.5437C9.14922 12.4158 9.15228 12.3564 9.16126 11.0056L9.17061 9.60045H10.5567C11.9035 9.60045 11.9469 9.59846 12.0893 9.52952C12.371 9.39326 12.5197 9.0564 12.4301 8.75755C12.3675 8.54863 12.1542 8.35405 11.9371 8.30775C11.8232 8.28348 11.3022 8.27017 10.4647 8.27017H9.16855L9.16835 6.93158C9.16825 6.10012 9.15494 5.54539 9.13328 5.46737C9.09375 5.32513 8.93502 5.12911 8.80591 5.0631C8.68951 5.0036 8.47561 4.97752 8.35329 5.00789Z" fill="white"/>
</svg>
